<?xml version="1.0" encoding="UTF-8"?>
<svg width="21px" height="22px" viewBox="0 0 21 22" version="1.1" xmlns="http://www.w3.org/2000/svg" xmlns:xlink="http://www.w3.org/1999/xlink">
    <title>015-twitch</title>
    <g id="Metadventu.re-LP" stroke="none" stroke-width="1" fill="none" fill-rule="evenodd">
        <g id="Metadventure" transform="translate(-1154.000000, -62.000000)" fill="#FFFFFF" fill-rule="nonzero">
            <g id="Group-7" transform="translate(990.000000, 62.000000)">
                <g id="015-twitch" transform="translate(164.000000, 0.000000)">
                    <path d="M21,0 L21,13.3925 L15.4,19.25 L11.2,19.25 L8.4,22 L5.6,22 L5.6,19.25 L0,19.25 L0,4.125 L1.4,0 L21,0 Z M19.6,1.375 L2.8,1.375 L2.8,16.5 L7.7,16.5 L7.7,18.654625 L10.7156,16.5 L15.68,16.5 L19.6,12.375 L19.6,1.375 Z M10.92,5.7037037 L10.92,10.5925926 L9.24,10.5925926 L9.24,5.7037037 L10.92,5.7037037 Z M15.12,5.7037037 L15.12,10.5925926 L13.44,10.5925926 L13.44,5.7037037 L15.12,5.7037037 Z" id="Combined-Shape"></path>
                </g>
            </g>
        </g>
    </g>
</svg>