<?xml version="1.0" encoding="UTF-8"?>
<svg width="22px" height="22px" viewBox="0 0 22 22" version="1.1" xmlns="http://www.w3.org/2000/svg" xmlns:xlink="http://www.w3.org/1999/xlink">
    <title>031-linkedin</title>
    <g id="Metadventu.re-LP" stroke="none" stroke-width="1" fill="none" fill-rule="evenodd">
        <g id="Metadventure" transform="translate(-1100.000000, -62.000000)" fill="#FFFFFF" fill-rule="nonzero">
            <g id="Group-7" transform="translate(990.000000, 62.000000)">
                <g id="031-linkedin" transform="translate(110.000000, 0.000000)">
                    <path d="M4.88888889,7.33333333 L4.88888889,22 L0,22 L0,7.33333333 L4.88888889,7.33333333 Z M12.104,7.33333333 L12.104,10.1373333 C12.6853333,9.356 14.4493333,7.33333333 17.2306667,7.33333333 C17.556,7.33333333 17.8333333,7.36933333 18.0866667,7.42 C18.152,7.43066667 18.216,7.44266667 18.28,7.45733333 C18.3333333,7.472 18.3813333,7.48933333 18.432,7.50533333 C20.4813333,8.04 22,9.88666667 22,12.1026667 L22,12.1026667 L22,22 L17.2306667,22 L17.2306667,22 L17.2306667,12.6666667 C15.7093333,8.97866667 12.104,14 12.104,14 L12.104,14 L12.104,22 L7.33333333,22 L7.33333333,7.33333333 L12.104,7.33333333 Z M2.44444444,0 C3.79447383,0 4.88888889,1.09441506 4.88888889,2.44444444 C4.88888889,3.79447383 3.79447383,4.88888889 2.44444444,4.88888889 C1.09441506,4.88888889 0,3.79447383 0,2.44444444 C0,1.09441506 1.09441506,0 2.44444444,0 Z" id="Combined-Shape"></path>
                </g>
            </g>
        </g>
    </g>
</svg>