<?xml version="1.0" encoding="UTF-8"?>
<svg width="32px" height="32px" viewBox="0 0 32 32" version="1.1" xmlns="http://www.w3.org/2000/svg" xmlns:xlink="http://www.w3.org/1999/xlink">
    <title>github</title>
    <g id="Page-1" stroke="none" stroke-width="1" fill="none" fill-rule="evenodd">
        <g id="github" fill="#FFFFFF" fill-rule="nonzero">
            <path d="M16.0001221,0 C7.21196908,0 0,7.21191406 0,16 C0,23.4992676 5.26224715,30.3115234 12.2500935,32 L12.2500935,26.706543 C11.5577054,26.8581543 10.9204934,26.8625488 10.2156541,26.6547851 C9.27009022,26.3757324 8.50177386,25.7458496 7.93145701,24.7854004 C7.56792886,24.1721191 6.92363682,23.5070801 6.25151257,23.5559082 L6.08671637,21.6882324 C7.54009659,21.5637207 8.79743036,22.5737305 9.543774,23.8276367 C9.87531946,24.3852539 10.2569142,24.7121582 10.746664,24.8566894 C11.2200563,24.9960938 11.728361,24.9291992 12.3206506,24.7199707 C12.4693334,23.5341797 13.0125505,23.090332 13.422954,22.465332 L13.422954,22.4643555 C9.25544173,21.8427734 7.59454038,19.6318359 6.93535566,17.8867188 C6.06181381,15.5695801 6.53056738,12.6748047 8.07525692,10.845459 C8.10528646,10.8098144 8.15948606,10.7165527 8.13848984,10.6513672 C7.43023243,8.51196288 8.29327614,6.7421875 8.3250147,6.55444337 C9.14240375,6.79614256 9.27521726,6.31127931 11.8755788,7.89111325 L12.3250452,8.16113281 C12.5130349,8.27319337 12.4539524,8.2092285 12.6419421,8.19506837 C13.7276438,7.9001465 14.8721838,7.73730469 15.9998779,7.72265625 C17.136117,7.73730469 18.2733328,7.9001465 19.4039567,8.20703125 L19.5494655,8.22167969 C19.5367702,8.21972656 19.5890166,8.21240237 19.6766638,8.16015625 C22.9249796,6.19262694 22.8082795,6.83569337 23.6793799,6.55249025 C23.7108743,6.7404785 24.5624433,8.5390625 23.8617543,10.6513672 C23.7672712,10.9423828 26.6779379,13.607666 25.0646443,17.8859863 C24.4054596,19.6318359 22.7448024,21.8427734 18.5772902,22.4643555 L18.5772902,22.465332 C19.1114739,23.279541 19.7533245,23.7126465 19.7499065,25.392334 L19.7499065,32 C26.737997,30.3115234 32,23.4992676 32,16 C32,7.21191406 24.788275,0 16.0001221,0 Z" id="Path"></path>
        </g>
    </g>
</svg>