<?xml version="1.0" encoding="UTF-8"?>
<svg width="70px" height="70px" viewBox="0 0 70 70" version="1.1" xmlns="http://www.w3.org/2000/svg" xmlns:xlink="http://www.w3.org/1999/xlink">
    <title>network (1)</title>
    <g id="Metadventu.re-LP" stroke="none" stroke-width="1" fill="none" fill-rule="evenodd">
        <g id="Metadventure" transform="translate(-818.000000, -1057.000000)">
            <g id="Group-6" transform="translate(238.000000, 1008.000000)">
                <g id="Group-18" transform="translate(504.000000, 49.000000)">
                    <g id="network-(1)" transform="translate(76.000000, 0.000000)">
                        <path d="M62.3636364,0 C58.1521818,0 54.7272727,3.42490909 54.7272727,7.63636364 C54.7272727,8.95363636 55.062,10.1932727 55.6512727,11.2763636 L43.1416364,23.786 C41.4170909,22.4432727 39.2585455,21.6363636 36.9090909,21.6363636 C34.5596364,21.6363636 32.4010909,22.4432727 30.6752727,23.7847273 L20.9147273,14.0241818 C21.3627273,13.2669091 21.6363636,12.3963636 21.6363636,11.4545455 C21.6363636,8.64690909 19.3530909,6.36363636 16.5454545,6.36363636 C13.7378182,6.36363636 11.4545455,8.64690909 11.4545455,11.4545455 C11.4545455,14.2621818 13.7378182,16.5454545 16.5454545,16.5454545 C17.4872727,16.5454545 18.3578182,16.2718182 19.1150909,15.8238182 L28.8756364,25.5843636 C27.5341818,27.3101818 26.7272727,29.4687273 26.7272727,31.8181818 C26.7272727,34.1676364 27.5341818,36.3261818 28.8756364,38.0507273 L12.7578182,54.1698182 C11.4010909,52.9390909 9.60781818,52.1818182 7.63636364,52.1818182 C3.42490909,52.1818182 0,55.6067273 0,59.8181818 C0,64.0296364 3.42490909,67.4545455 7.63636364,67.4545455 C11.8478182,67.4545455 15.2727273,64.0296364 15.2727273,59.8181818 C15.2727273,58.5009091 14.938,57.2612727 14.3487273,56.1781818 L30.6765455,39.8503636 C32.0841818,40.9449091 33.782,41.678 35.6376364,41.9109091 L35.6376364,54.8418182 C32.032,55.4501818 29.274,58.5861818 29.274,62.3636364 C29.274,66.5750909 32.6989091,70 36.9103636,70 C41.1218182,70 44.5467273,66.5750909 44.5467273,62.3636364 C44.5467273,58.5874545 41.7887273,55.4514545 38.1830909,54.8418182 L38.1830909,41.9109091 C40.0387273,41.678 41.7365455,40.9449091 43.1441818,39.8503636 L52.9047273,49.6109091 C52.4554545,50.3694545 52.1818182,51.24 52.1818182,52.1818182 C52.1818182,54.9894545 54.4650909,57.2727273 57.2727273,57.2727273 C60.0803636,57.2727273 62.3636364,54.9894545 62.3636364,52.1818182 C62.3636364,49.3741818 60.0803636,47.0909091 57.2727273,47.0909091 C56.3309091,47.0909091 55.4603636,47.3645455 54.7030909,47.8125455 L44.9425455,38.052 C46.284,36.3261818 47.0909091,34.1676364 47.0909091,31.8181818 C47.0909091,29.4687273 46.284,27.3101818 44.9425455,25.5856364 L57.2434545,13.2847273 C58.5989091,14.5154545 60.3921818,15.2727273 62.3636364,15.2727273 C66.5750909,15.2727273 70,11.8478182 70,7.63636364 C70,3.42490909 66.5750909,0 62.3636364,0 Z M14,11.4545455 C14,10.0507273 15.1416364,8.90909091 16.5454545,8.90909091 C17.9492727,8.90909091 19.0909091,10.0507273 19.0909091,11.4545455 C19.0909091,12.8583636 17.9492727,14 16.5454545,14 C15.1416364,14 14,12.8583636 14,11.4545455 Z M7.63636364,64.9090909 C4.82872727,64.9090909 2.54545455,62.6258182 2.54545455,59.8181818 C2.54545455,57.0105455 4.82872727,54.7272727 7.63636364,54.7272727 C10.444,54.7272727 12.7272727,57.0105455 12.7272727,59.8181818 C12.7272727,62.6258182 10.444,64.9090909 7.63636364,64.9090909 Z M42,62.3636364 C42,65.1712727 39.7167273,67.4545455 36.9090909,67.4545455 C34.1014545,67.4545455 31.8181818,65.1712727 31.8181818,62.3636364 C31.8181818,59.556 34.1014545,57.2727273 36.9090909,57.2727273 C39.7167273,57.2727273 42,59.556 42,62.3636364 Z M36.9090909,39.4545455 C32.6976364,39.4545455 29.2727273,36.0296364 29.2727273,31.8181818 C29.2727273,27.6067273 32.6976364,24.1818182 36.9090909,24.1818182 C41.1205455,24.1818182 44.5454545,27.6067273 44.5454545,31.8181818 C44.5454545,36.0296364 41.1205455,39.4545455 36.9090909,39.4545455 Z M59.8181818,52.1818182 C59.8181818,53.5856364 58.6765455,54.7272727 57.2727273,54.7272727 C55.8689091,54.7272727 54.7272727,53.5856364 54.7272727,52.1818182 C54.7272727,50.778 55.8689091,49.6363636 57.2727273,49.6363636 C58.6765455,49.6363636 59.8181818,50.778 59.8181818,52.1818182 Z M62.3636364,12.7272727 C59.556,12.7272727 57.2727273,10.444 57.2727273,7.63636364 C57.2727273,4.82872727 59.556,2.54545455 62.3636364,2.54545455 C65.1712727,2.54545455 67.4545455,4.82872727 67.4545455,7.63636364 C67.4545455,10.444 65.1712727,12.7272727 62.3636364,12.7272727 Z" id="Shape" fill="#FFFFFF" fill-rule="nonzero"></path>
                        <path d="M14,11.4545455 C14,10.0507273 15.1416364,8.90909091 16.5454545,8.90909091 C17.9492727,8.90909091 19.0909091,10.0507273 19.0909091,11.4545455 C19.0909091,12.8583636 17.9492727,14 16.5454545,14 C15.1416364,14 14,12.8583636 14,11.4545455 Z M7.63636364,64.9090909 C4.82872727,64.9090909 2.54545455,62.6258182 2.54545455,59.8181818 C2.54545455,57.0105455 4.82872727,54.7272727 7.63636364,54.7272727 C10.444,54.7272727 12.7272727,57.0105455 12.7272727,59.8181818 C12.7272727,62.6258182 10.444,64.9090909 7.63636364,64.9090909 Z M42,62.3636364 C42,65.1712727 39.7167273,67.4545455 36.9090909,67.4545455 C34.1014545,67.4545455 31.8181818,65.1712727 31.8181818,62.3636364 C31.8181818,59.556 34.1014545,57.2727273 36.9090909,57.2727273 C39.7167273,57.2727273 42,59.556 42,62.3636364 Z M36.9090909,39.4545455 C32.6976364,39.4545455 29.2727273,36.0296364 29.2727273,31.8181818 C29.2727273,27.6067273 32.6976364,24.1818182 36.9090909,24.1818182 C41.1205455,24.1818182 44.5454545,27.6067273 44.5454545,31.8181818 C44.5454545,36.0296364 41.1205455,39.4545455 36.9090909,39.4545455 Z M59.8181818,52.1818182 C59.8181818,53.5856364 58.6765455,54.7272727 57.2727273,54.7272727 C55.8689091,54.7272727 54.7272727,53.5856364 54.7272727,52.1818182 C54.7272727,50.778 55.8689091,49.6363636 57.2727273,49.6363636 C58.6765455,49.6363636 59.8181818,50.778 59.8181818,52.1818182 Z M62.3636364,12.7272727 C59.556,12.7272727 57.2727273,10.444 57.2727273,7.63636364 C57.2727273,4.82872727 59.556,2.54545455 62.3636364,2.54545455 C65.1712727,2.54545455 67.4545455,4.82872727 67.4545455,7.63636364 C67.4545455,10.444 65.1712727,12.7272727 62.3636364,12.7272727 Z" id="Combined-Shape" fill="#1B1B29"></path>
                    </g>
                </g>
            </g>
        </g>
    </g>
</svg>