<?xml version="1.0" encoding="UTF-8"?>
<svg width="56px" height="56px" viewBox="0 0 56 56" version="1.1" xmlns="http://www.w3.org/2000/svg" xmlns:xlink="http://www.w3.org/1999/xlink">
    <title>joystick</title>
    <g id="Metadventu.re-LP" stroke="none" stroke-width="1" fill="none" fill-rule="evenodd">
        <g id="Metadventure" transform="translate(-1229.000000, -1304.000000)">
            <g id="joystick" transform="translate(1229.000000, 1304.000000)">
                <path d="M22.0625,37.6875 L18.3125,37.6875 L18.3125,33.9375 C18.3125,33.4197656 17.8927344,33 17.375,33 L13.625,33 C13.1072656,33 12.6875,33.4197656 12.6875,33.9375 L12.6875,37.6875 L8.9375,37.6875 C8.41976563,37.6875 8,38.1072656 8,38.625 L8,42.375 C8,42.8927344 8.41976563,43.3125 8.9375,43.3125 L12.6875,43.3125 L12.6875,47.0625 C12.6875,47.5802344 13.1072656,48 13.625,48 L17.375,48 C17.8927344,48 18.3125,47.5802344 18.3125,47.0625 L18.3125,43.3125 L22.0625,43.3125 C22.5802344,43.3125 23,42.8927344 23,42.375 L23,38.625 C23,38.1072656 22.5802344,37.6875 22.0625,37.6875 Z" id="Path" fill="#1B1B29"></path>
                <path d="M22.0625,37.6875 L18.3125,37.6875 L18.3125,33.9375 C18.3125,33.4197656 17.8927344,33 17.375,33 L13.625,33 C13.1072656,33 12.6875,33.4197656 12.6875,33.9375 L12.6875,37.6875 L8.9375,37.6875 C8.41976563,37.6875 8,38.1072656 8,38.625 L8,42.375 C8,42.8927344 8.41976563,43.3125 8.9375,43.3125 L12.6875,43.3125 L12.6875,47.0625 C12.6875,47.5802344 13.1072656,48 13.625,48 L17.375,48 C17.8927344,48 18.3125,47.5802344 18.3125,47.0625 L18.3125,43.3125 L22.0625,43.3125 C22.5802344,43.3125 23,42.8927344 23,42.375 L23,38.625 C23,38.1072656 22.5802344,37.6875 22.0625,37.6875 Z M21.125,41.4375 L17.375,41.4375 C16.8572656,41.4375 16.4375,41.8572656 16.4375,42.375 L16.4375,46.125 L14.5625,46.125 L14.5625,42.375 C14.5625,41.8572656 14.1427344,41.4375 13.625,41.4375 L9.875,41.4375 L9.875,39.5625 L13.625,39.5625 C14.1427344,39.5625 14.5625,39.1427344 14.5625,38.625 L14.5625,34.875 L16.4375,34.875 L16.4375,38.625 C16.4375,39.1427344 16.8572656,39.5625 17.375,39.5625 L21.125,39.5625 L21.125,41.4375 Z" id="Shape" fill="#FFFFFF" fill-rule="nonzero"></path>
                <path d="M55.9024767,39.3609486 C55.1867141,32.9294333 49.1470586,26.9123125 42.7107941,26.2263215 C42.1641735,26.1660056 41.6146367,26.134856 41.0646333,26.1329894 L30.7994586,26.1329894 L30.7994586,22.3997052 L28.9330633,22.3997052 L28.9330633,20.5330631 C28.9330633,18.4712402 27.2618228,16.7997789 25.2002725,16.7997789 L20.534284,16.7997789 C19.5034505,16.7997789 18.6678886,15.9641066 18.6678886,14.9331368 C18.6678886,13.902167 19.5034505,13.0664947 20.534284,13.0664947 L35.4654471,13.0664947 C37.5269975,13.0664947 39.1982379,11.3950334 39.1982379,9.33321049 C39.1982379,7.27138763 37.5269975,5.5999263 35.4654471,5.5999263 L30.7994586,5.5999263 C29.7686251,5.5999263 28.9330633,4.76425396 28.9330633,3.7332842 L28.9330633,0 L27.0666679,0 L27.0666679,3.7332842 C27.0666679,5.79510706 28.7379083,7.46656839 30.7994586,7.46656839 L35.4654471,7.46656839 C36.4962806,7.46656839 37.3318425,8.30224073 37.3318425,9.33321049 C37.3318425,10.3641803 36.4962806,11.1998526 35.4654471,11.1998526 L20.534284,11.1998526 C18.4727336,11.1998526 16.8014932,12.8713139 16.8014932,14.9331368 C16.8014932,16.9949597 18.4727336,18.666421 20.534284,18.666421 L25.2002725,18.666421 C26.231106,18.666421 27.0666679,19.5020933 27.0666679,20.5330631 L27.0666679,22.3997052 L25.2002725,22.3997052 L25.2002725,26.1329894 L14.9350978,26.1329894 C14.3845112,26.1342727 13.8342745,26.1654223 13.2870707,26.2263215 C6.84800656,26.9169791 0.812083853,32.9340999 0.0981876151,39.3656152 C-0.839326121,47.559474 5.04215236,54.9621099 13.2350449,55.8997476 C16.5712267,56.2815926 19.9386706,55.5274692 22.7935556,53.7594091 C24.0226936,52.954653 25.4276228,52.4581262 26.8893603,52.3118282 C27.611422,52.2547789 28.3366333,52.2522123 29.0590449,52.3043616 C30.5438791,52.4479764 31.9714383,52.9502198 33.2192403,53.767809 C40.2339707,58.1035519 49.4349501,55.9311305 53.77012,48.9153562 C55.5340969,46.0606771 56.2853211,42.6948881 55.9024767,39.3609486 Z M27.0666679,24.2663473 L28.9330633,24.2663473 L28.9330633,26.1329894 L27.0666679,26.1329894 L27.0666679,24.2663473 Z M50.8025513,49.7777448 C46.5834478,54.4975494 39.5869148,55.5104361 34.2028306,52.1810465 C32.6993325,51.2018761 30.9793325,50.6050173 29.1924922,50.4422694 C28.7986828,50.4136865 28.4011406,50.3993367 27.9998656,50.3993367 C27.5752606,50.3993367 27.1599876,50.4170698 26.7419151,50.449736 C24.9822542,50.6183171 23.2894335,51.2093427 21.8071656,52.1726467 C15.6711575,55.9695133 7.6194111,54.0727716 3.82292957,47.9359524 C2.27743754,45.4376853 1.61883326,42.4914241 1.95338464,39.5728125 C2.56742872,34.0456852 7.95571222,28.6772226 13.4877082,28.0826971 C13.968305,28.0289144 14.4514681,28.0012648 14.9350978,27.9996315 L41.0646333,27.9996315 C41.5481464,27.9999815 42.0313095,28.0257645 42.5120229,28.0770971 C48.0430857,28.6716226 53.430436,34.0400853 54.0463465,39.5672126 C54.4863492,43.279147 53.3041044,47.0005314 50.8025513,49.7777448 Z" id="Shape" fill="#FFFFFF" fill-rule="nonzero"></path>
                <path d="M40.8888889,42.4 C43.0366493,42.4 44.7777778,44.1013313 44.7777778,46.2 C44.7777778,48.2986687 43.0366493,50 40.8888889,50 C38.7411285,50 37,48.2986687 37,46.2 C37,44.1013313 38.7411285,42.4 40.8888889,42.4 Z M33.8888889,37.08 C36.0366493,37.08 37.7777778,38.7813313 37.7777778,40.88 C37.7777778,42.9786687 36.0366493,44.68 33.8888889,44.68 C31.7411285,44.68 30,42.9786687 30,40.88 C30,38.7813313 31.7411285,37.08 33.8888889,37.08 Z M47.1111111,37.08 C49.2588715,37.08 51,38.7813313 51,40.88 C51,42.9786687 49.2588715,44.68 47.1111111,44.68 C44.9633507,44.68 43.2222222,42.9786687 43.2222222,40.88 C43.2222222,38.7813313 44.9633507,37.08 47.1111111,37.08 Z M40.8888889,31 C43.0366493,31 44.7777778,32.7013313 44.7777778,34.8 C44.7777778,36.8986687 43.0366493,38.6 40.8888889,38.6 C38.7411285,38.6 37,36.8986687 37,34.8 C37,32.7013313 38.7411285,31 40.8888889,31 Z" id="Combined-Shape" fill="#1B1B29" fill-rule="nonzero"></path>
                <path d="M40.8888889,42.4 C43.0366493,42.4 44.7777778,44.1013313 44.7777778,46.2 C44.7777778,48.2986687 43.0366493,50 40.8888889,50 C38.7411285,50 37,48.2986687 37,46.2 C37,44.1013313 38.7411285,42.4 40.8888889,42.4 Z M40.8888889,44.3 C39.8149479,44.3 38.9444444,45.1506062 38.9444444,46.2 C38.9444444,47.2493937 39.8149479,48.1 40.8888889,48.1 C41.9627083,48.1 42.8333333,47.2493937 42.8333333,46.2 C42.8333333,45.1506062 41.9628299,44.3 40.8888889,44.3 Z M47.1111111,37.08 C49.2588715,37.08 51,38.7813313 51,40.88 C51,42.9786687 49.2588715,44.68 47.1111111,44.68 C44.9633507,44.68 43.2222222,42.9786687 43.2222222,40.88 C43.2222222,38.7813313 44.9633507,37.08 47.1111111,37.08 Z M33.8888889,37.08 C36.0366493,37.08 37.7777778,38.7813312 37.7777778,40.88 C37.7777778,42.9786687 36.0366493,44.68 33.8888889,44.68 C31.7411285,44.68 30,42.9786687 30,40.88 C30,38.7813312 31.7411285,37.08 33.8888889,37.08 Z M47.1111111,38.98 C46.0371701,38.98 45.1666667,39.8306063 45.1666667,40.88 C45.1666667,41.9293937 46.0371701,42.78 47.1111111,42.78 C48.1849306,42.78 49.0555556,41.9293937 49.0555556,40.88 C49.0555556,39.8306063 48.1850521,38.98 47.1111111,38.98 Z M33.8888889,38.98 C32.8149479,38.98 31.9444444,39.8306062 31.9444444,40.88 C31.9444444,41.9293937 32.8149479,42.78 33.8888889,42.78 C34.9627083,42.78 35.8333333,41.9293937 35.8333333,40.88 C35.8333333,39.8306062 34.9628299,38.98 33.8888889,38.98 Z M40.8888889,31 C43.0366493,31 44.7777778,32.7013313 44.7777778,34.8 C44.7777778,36.8986687 43.0366493,38.6 40.8888889,38.6 C38.7411285,38.6 37,36.8986687 37,34.8 C37,32.7013313 38.7411285,31 40.8888889,31 Z M40.8888889,32.9 C39.8149479,32.9 38.9444444,33.7506063 38.9444444,34.8 C38.9444444,35.8493937 39.8149479,36.7 40.8888889,36.7 C41.9627083,36.7 42.8333333,35.8493937 42.8333333,34.8 C42.8333333,33.7506063 41.9628299,32.9 40.8888889,32.9 Z" id="Combined-Shape" fill="#FFFFFF" fill-rule="nonzero"></path>
            </g>
        </g>
    </g>
</svg>