<?xml version="1.0" encoding="UTF-8"?>
<svg width="487px" height="512px" viewBox="0 0 487 512" version="1.1" xmlns="http://www.w3.org/2000/svg" xmlns:xlink="http://www.w3.org/1999/xlink">
    <title>ninja</title>
    <defs>
        <linearGradient x1="100%" y1="17.3666443%" x2="-6.26235175e-14%" y2="82.6333557%" id="linearGradient-1">
            <stop stop-color="#FFD109" stop-opacity="0.717056381" offset="0%"></stop>
            <stop stop-color="#FFFFFF" stop-opacity="0" offset="100%"></stop>
        </linearGradient>
        <path d="M189.527343,511.972656 L132.496093,511.972656 L295.718749,348.699219 C309.523437,353.148438 322.566405,359.300781 334.597655,366.902344 L189.527343,511.972656 Z" id="path-2"></path>
        <path d="M296.691405,511.972656 L353.722655,511.972656 L190.503905,348.699219 C176.695311,353.148438 163.652343,359.300781 151.621093,366.902344 L296.691405,511.972656 Z" id="path-3"></path>
        <linearGradient x1="100%" y1="47.9905638%" x2="-6.26235175e-14%" y2="52.0094362%" id="linearGradient-4">
            <stop stop-color="#FFD109" stop-opacity="0.717056381" offset="0%"></stop>
            <stop stop-color="#FFFFFF" stop-opacity="0" offset="100%"></stop>
        </linearGradient>
        <path d="M61.4492185,182.34375 L424.796874,182.34375 C431.960937,182.34375 437.660155,176.246094 437.078124,169.105469 C435.441405,148.996094 430.58203,129.804688 423.007811,112.042969 C421.070311,107.503906 416.609374,104.5625 411.67578,104.5625 L74.5703115,104.5625 C69.6367185,104.5625 65.1757805,107.503906 63.2382805,112.042969 C55.6640615,129.804688 50.8046875,149 49.1679685,169.105469 C48.5859375,176.246094 54.2851555,182.34375 61.4492185,182.34375 Z" id="path-5"></path>
    </defs>
    <g id="Metadventu.re-LP" stroke="none" stroke-width="1" fill="none" fill-rule="evenodd">
        <g id="ninja" transform="translate(-0.000000, 0.000000)">
            <path d="M98.2968745,327.601562 L66.4960935,359.398438 L6.5859375,299.484375 C-2.1953125,290.703125 -2.1953125,276.46875 6.5859375,267.6875 C15.3632805,258.90625 29.6015615,258.90625 38.3828115,267.6875 L98.2968745,327.601562 Z" id="Path" fill="#CF81DB" fill-rule="nonzero"></path>
            <path d="M16.6679685,261.871094 C12.9726555,262.855469 9.4804685,264.789062 6.5859375,267.6875 C-2.1953125,276.46875 -2.1953125,290.703125 6.5859375,299.484375 L66.5,359.398438 L82.3984375,343.5 L22.4843745,283.585938 C16.6015615,277.703125 14.6640615,269.371094 16.6679685,261.871094 L16.6679685,261.871094 Z" id="Path" fill-opacity="0.4" fill="#535860" fill-rule="nonzero"></path>
            <polygon id="Path" fill="#DFE0E0" fill-rule="nonzero" points="66.4960935 359.398438 98.2929685 327.601562 184.906249 414.214844 153.109374 446.011719"></polygon>
            <polygon id="Path" fill="#C9CACA" fill-rule="nonzero" points="66.4960935 359.394531 82.3945305 343.496094 169.007811 430.113281 153.109374 446.011719"></polygon>
            <path d="M126.050781,327.714844 L66.6093745,387.152344 C64.7851555,388.976562 61.8281245,388.976562 60.0039055,387.152344 L38.7421875,365.894531 C36.9179685,364.066406 36.9179685,361.109375 38.7421875,359.285156 L98.1796875,299.847656 C100.003906,298.019531 102.964844,298.019531 104.789062,299.847656 L126.050781,321.105469 C127.875,322.929688 127.875,325.890625 126.050781,327.714844 Z" id="Path" fill="#B7EFFF" fill-rule="nonzero"></path>
            <path d="M81.8554685,365.300781 L60.5976555,344.039062 C58.7734375,342.214844 58.7734375,339.253906 60.5976555,337.429688 L38.7421875,359.285156 C36.9179685,361.109375 36.9179685,364.066406 38.7421875,365.894531 L60.0039055,387.152344 C61.8281245,388.976562 64.7851555,388.976562 66.6132805,387.152344 L88.4648435,365.300781 C86.6406245,367.125 83.6835935,367.125 81.8554685,365.300781 L81.8554685,365.300781 Z" id="Path" fill="#7BAEBC" fill-rule="nonzero"></path>
            <path d="M387.949218,327.601562 L419.746093,359.398438 L479.660155,299.484375 C488.441405,290.703125 488.441405,276.46875 479.660155,267.6875 C470.882811,258.90625 456.64453,258.90625 447.86328,267.6875 L387.949218,327.601562 Z" id="Path" fill="#CF81DB" fill-rule="nonzero"></path>
            <path d="M469.578124,261.871094 C473.273437,262.855469 476.765624,264.789062 479.660155,267.6875 C488.441405,276.46875 488.441405,290.703125 479.660155,299.484375 L419.746093,359.398438 L403.847655,343.5 L463.761718,283.585938 C469.64453,277.703125 471.58203,269.371094 469.578124,261.871094 L469.578124,261.871094 Z" id="Path" fill-opacity="0.4" fill="#535860" fill-rule="nonzero"></path>
            <polygon id="Path" fill="#DFE0E0" fill-rule="nonzero" points="333.132812 446.019531 301.335938 414.222656 387.949218 327.605469 419.746093 359.402344"></polygon>
            <polygon id="Path" fill="#C9CACA" fill-rule="nonzero" points="317.226561 430.117188 403.843749 343.5 419.742187 359.398438 333.124999 446.015625"></polygon>
            <path d="M360.195312,327.714844 L419.636719,387.152344 C421.460938,388.976562 424.417969,388.976562 426.242188,387.152344 L447.503906,365.894531 C449.328125,364.066406 449.328125,361.109375 447.503906,359.285156 L388.066406,299.847656 C386.242188,298.019531 383.28125,298.019531 381.457031,299.847656 L360.195312,321.105469 C358.371094,322.929688 358.371094,325.890625 360.195312,327.714844 L360.195312,327.714844 Z" id="Path" fill="#B7EFFF" fill-rule="nonzero"></path>
            <path d="M404.390624,365.300781 L425.648437,344.039062 C427.472655,342.214844 427.472655,339.253906 425.648437,337.429688 L447.503905,359.28125 C449.328124,361.109375 449.328124,364.066406 447.503905,365.890625 L426.242187,387.152344 C424.417968,388.976562 421.45703,388.976562 419.632811,387.152344 L397.781249,365.300781 C399.605468,367.125 402.562499,367.125 404.390624,365.300781 Z" id="Path" fill="#7BAEBC" fill-rule="nonzero"></path>
            <path d="M71.5898435,512 C71.5898435,417.265625 148.386718,340.464844 243.121093,340.464844 C337.859374,340.464844 414.656249,417.265625 414.656249,512 L71.5898435,512 Z" id="Path" fill="#BABCBF" fill-rule="nonzero"></path>
            <path d="M414.656249,512 L132.496093,512 L295.742187,348.699219 C364.734374,370.914062 414.656249,435.621094 414.656249,512 L414.656249,512 Z" id="Path" fill="#FFFFFF" fill-rule="nonzero"></path>
            <g id="Path">
                <use fill="#B850FF" xlink:href="#path-2"></use>
                <use fill="url(#linearGradient-1)" xlink:href="#path-2"></use>
            </g>
            <path d="M71.5898435,512 L353.749999,512 L190.503905,348.699219 C121.511718,370.914062 71.5898435,435.621094 71.5898435,512 Z" id="Path" fill="#FFFFFF" fill-rule="nonzero"></path>
            <path d="M259.230468,341.222656 C253.92578,340.730469 248.554687,340.464844 243.121093,340.464844 C148.386718,340.464844 71.5898435,417.265625 71.5898435,512 L103.804687,512 C103.804687,422.695312 172.05078,349.34375 259.230468,341.222656 L259.230468,341.222656 Z" id="Path" fill-opacity="0.4" fill="#535860" fill-rule="nonzero"></path>
            <g id="Path">
                <use fill="#B850FF" xlink:href="#path-3"></use>
                <use fill="url(#linearGradient-1)" xlink:href="#path-3"></use>
            </g>
            <path d="M199.781249,357.984375 L190.503905,348.699219 C176.695311,353.148438 163.652343,359.300781 151.621093,366.902344 L165.214843,380.496094 C175.734374,371.675781 187.335937,364.101562 199.781249,357.984375 Z" id="Path" fill="#CB556A" fill-rule="nonzero"></path>
            <path d="M427.406249,184.285156 C427.406249,286.0625 344.898437,368.566406 243.121093,368.566406 C141.347655,368.566406 58.8398435,286.0625 58.8398435,184.285156 C58.8398435,82.507812 141.347655,0 243.121093,0 C344.898437,0 427.406249,82.507812 427.406249,184.285156 Z" id="Path" fill="#FFFFFF" fill-rule="nonzero"></path>
            <path d="M89.7421875,184.285156 C89.7421875,87.710938 164.031249,8.5 258.574218,0.648438 C253.480468,0.226562 248.328124,0 243.121093,0 C141.347655,0 58.8398435,82.507812 58.8398435,184.285156 C58.8398435,286.0625 141.347655,368.566406 243.121093,368.566406 C248.328124,368.566406 253.480468,368.339844 258.574218,367.917969 C164.031249,360.066406 89.7421875,280.855469 89.7421875,184.285156 Z" id="Path" fill-opacity="0.4" fill="#535860" fill-rule="nonzero"></path>
            <path d="M58.8398435,184.285156 C58.8398435,188.796875 59.0078115,193.269531 59.3281245,197.703125 C60.0312495,197.757812 60.7382805,197.792969 61.4492185,197.792969 L424.796874,197.792969 C425.507811,197.792969 426.214843,197.757812 426.917968,197.703125 C427.234374,193.269531 427.406249,188.796875 427.406249,184.285156 C427.406249,170.25 425.828124,156.585938 422.859374,143.453125 L63.3867185,143.453125 C60.4140615,156.585938 58.8398435,170.25 58.8398435,184.285156 Z" id="Path" fill-opacity="0.4" fill="#535860" fill-rule="nonzero"></path>
            <path d="M310.652343,262.648438 L287.671874,253.082031 C259.160155,241.210938 227.085937,241.210938 198.570311,253.082031 L175.593749,262.648438 C148.089843,274.101562 117.785155,253.894531 117.785155,224.101562 C117.785155,201.035156 136.480468,182.34375 159.542968,182.34375 L326.703124,182.34375 C349.765624,182.34375 368.460937,201.039062 368.460937,224.101562 C368.460937,253.894531 338.156249,274.101562 310.652343,262.648438 L310.652343,262.648438 Z" id="Path" fill="#F7C2AD" fill-rule="nonzero"></path>
            <g id="Path">
                <use fill="#B850FF" xlink:href="#path-5"></use>
                <use fill="url(#linearGradient-4)" xlink:href="#path-5"></use>
            </g>
            <path d="M80.0742185,169.105469 C81.7109375,148.996094 86.5703115,129.804688 94.1445305,112.042969 C96.0781245,107.503906 100.542968,104.5625 105.476561,104.5625 L74.5703115,104.5625 C69.6367185,104.5625 65.1757805,107.503906 63.2382805,112.042969 C55.6640615,129.804688 50.8046875,148.996094 49.1679685,169.105469 C48.5859375,176.242188 54.2851555,182.339846 61.4492185,182.339846 L92.3554685,182.339846 C85.1914055,182.34375 79.4921875,176.246094 80.0742185,169.105469 Z" id="Path" fill="#CB556A" fill-rule="nonzero"></path>
            <g id="Group" transform="translate(10.999999, 202.406250)" fill-rule="nonzero">
                <path d="M15.898438,85.59375 L0,101.492188 L10.925781,112.417969 L26.824219,96.523438 C29.84375,93.503906 29.84375,88.613281 26.824219,85.59375 C23.808594,82.578125 18.914062,82.578125 15.898438,85.59375 L15.898438,85.59375 Z" id="Path" fill="#E6A76D"></path>
                <path d="M34.132812,103.828125 L18.234375,119.726562 L29.160156,130.652344 L45.058594,114.753906 C48.074219,111.738281 48.074219,106.84375 45.058594,103.828125 C42.039062,100.808594 37.148438,100.808594 34.132812,103.828125 Z" id="Path" fill="#E6A76D"></path>
                <path d="M448.347656,85.59375 C445.332031,82.578125 440.4375,82.578125 437.421875,85.59375 C434.402344,88.613281 434.402344,93.503906 437.421875,96.523438 L453.320312,112.417969 L464.246094,101.492188 L448.347656,85.59375 Z" id="Path" fill="#E6A76D"></path>
                <path d="M430.113281,103.828125 C427.097656,100.808594 422.207031,100.808594 419.1875,103.828125 C416.171875,106.84375 416.171875,111.734375 419.1875,114.753906 L435.085938,130.652344 L446.011719,119.726562 L430.113281,103.828125 Z" id="Path" fill="#E6A76D"></path>
                <path d="M297.734375,26.695312 C293.59375,26.695312 290.234375,23.339844 290.234375,19.195312 L290.234375,7.5 C290.234375,3.355469 293.59375,0 297.734375,0 C301.878906,0 305.234375,3.355469 305.234375,7.5 L305.234375,19.195312 C305.234375,23.339844 301.878906,26.695312 297.734375,26.695312 Z" id="Path" fill="#000000"></path>
                <path d="M166.511719,26.695312 C162.367188,26.695312 159.011719,23.339844 159.011719,19.195312 L159.011719,7.5 C159.011719,3.355469 162.367188,0 166.511719,0 C170.652344,0 174.011719,3.355469 174.011719,7.5 L174.011719,19.195312 C174.011719,23.339844 170.652344,26.695312 166.511719,26.695312 Z" id="Path" fill="#000000"></path>
            </g>
        </g>
    </g>
</svg>