<?xml version="1.0" encoding="UTF-8"?>
<svg width="83px" height="74px" viewBox="0 0 83 74" version="1.1" xmlns="http://www.w3.org/2000/svg" xmlns:xlink="http://www.w3.org/1999/xlink">
    <title>blockchain</title>
    <g id="Metadventu.re-LP" stroke="none" stroke-width="1" fill="none" fill-rule="evenodd">
        <g id="Metadventure" transform="translate(-1049.000000, -1055.000000)">
            <g id="Group-6" transform="translate(238.000000, 1008.000000)">
                <g id="Group-19" transform="translate(742.000000, 47.000000)">
                    <g id="blockchain" transform="translate(69.000000, 0.000000)">
                        <path d="M26.7237157,17.9077618 L41.3125883,26.347432 L36.749806,27.2210345 L26.570994,21.3137485 C26.1963662,21.0967975 25.7336856,21.0967975 25.358574,21.3137485 L8.75980658,30.9158061 C8.38646897,31.1317908 8.15649945,31.5300981 8.15649945,31.9611011 C8.15649945,32.3921041 8.38646897,32.7904114 8.75980658,33.0063961 L25.3587353,42.6089368 C25.5461298,42.7174929 25.7554569,42.7716099 25.9649453,42.7716099 C26.1742724,42.7716099 26.3837607,42.7173318 26.5711553,42.6089368 L40.5765568,34.5070146 L49.2321837,32.8298717 C49.1080066,33.0062351 48.9480278,33.158439 48.7559565,33.2697332 L26.7235544,46.0150846 C26.2636154,46.2813208 25.6670815,46.2814818 25.2063362,46.0150846 L3.17425665,33.269411 C2.70835067,32.9997926 2.41903418,32.4985663 2.41903418,31.9611011 C2.41903418,31.4236358 2.70835067,30.9224096 3.17409538,30.6529522 L25.2061749,17.9077618 C25.6741774,17.6368548 26.2557132,17.6370159 26.7237157,17.9077618 Z M63.1408238,2.93749425 C63.4931965,3.34433789 63.6033432,3.91192182 63.4285276,4.41942946 L55.1438194,28.4647584 C55.0568954,28.71666 54.9054639,28.9408588 54.7037164,29.1152894 C54.5030979,29.2893979 54.2589367,29.4077788 53.9978423,29.4577081 L33.6294132,33.3567069 C33.6158666,33.3592839 33.60232,33.3613777 33.5889347,33.3644378 L28.9935761,34.2441607 C28.4621949,34.3451468 27.9150094,34.1555764 27.5632818,33.7508266 C27.2104253,33.344144 27.0997949,32.7759158 27.2747717,32.268086 L29.5027021,25.8014304 L32.1731546,27.3461799 L31.6677377,28.8118478 C31.5272725,29.2193357 31.6148415,29.6707937 31.897546,29.9964619 C32.1802504,30.32213 32.614709,30.4728845 33.0391688,30.3915479 L51.8794134,26.7843943 C52.3050021,26.7028967 52.6544719,26.4002604 52.795421,25.9910008 L59.0355616,7.87582872 C59.1760268,7.46834083 59.0882965,7.0168829 58.8055921,6.69137578 C58.5228876,6.36586865 58.0884291,6.21511424 57.6641305,6.29645076 L38.8254986,9.9032823 C38.3999099,9.98477988 38.0504401,10.2874161 37.909491,10.6965147 L34.7807122,19.7772132 L32.1112273,18.2326247 L35.5598025,8.22179077 C35.7354243,7.71154507 36.1745597,7.33143778 36.705457,7.22964634 L61.7135937,2.44271054 C62.2407819,2.34140228 62.7873223,2.5311338 63.1408238,2.93749425 Z" id="Combined-Shape" fill="#1B1B29"></path>
                        <path d="M81.6080533,20.5179392 L76.7878858,14.9667623 C76.3502019,14.4626369 75.5862709,14.408681 75.0816604,14.8456433 C74.5770498,15.2826056 74.5227022,16.0455583 74.9603861,16.5496836 L79.7803924,22.1006995 C80.1330875,22.5068989 80.2433955,23.0748049 80.0682574,23.5831179 L71.784033,47.6281246 C71.6974316,47.879543 71.5455162,48.1043862 71.3444138,48.2784946 C71.1441178,48.4519588 70.900763,48.5701787 70.6406362,48.6205912 C70.1111902,48.7228658 69.562392,48.5339396 69.2088905,48.1269349 L54.9472325,31.7017906 C55.4392641,31.5391176 55.8964616,31.2806124 56.2880225,30.9406097 C56.68168,30.600768 57.0029278,30.1849049 57.2340262,29.7202398 L68.400933,42.580912 C68.6329991,42.8482756 68.9677934,42.9974194 69.3146829,42.9974194 C69.3911244,42.9974194 69.4682109,42.9901716 69.5449749,42.9753538 C69.9694348,42.893212 70.3177757,42.5908978 70.4584022,42.1826046 L76.6946724,24.081606 C76.8351376,23.6741181 76.7474073,23.2226602 76.4647028,22.8971531 L72.9392024,18.8369308 C72.5015185,18.3328055 71.7374262,18.2790107 71.232977,18.7158119 C70.7283665,19.1529353 70.6740188,19.9157268 71.1117027,20.4198522 L74.1804895,23.9540446 L68.8537762,39.4150693 L58.1690635,27.1097403 L63.4959381,11.6490377 L67.2655997,15.9904749 C67.5047615,16.2658916 67.8413298,16.4069823 68.1798333,16.4069823 C68.4607638,16.4069823 68.7429845,16.3097006 68.9718251,16.1115939 C69.4764356,15.6746315 69.5307833,14.9116789 69.0930994,14.4075536 L64.4054949,9.00890276 L65.5438924,5.70470747 L71.1197662,12.1262656 C71.358928,12.4016824 71.6954963,12.542773 72.0339998,12.542773 C72.3149303,12.542773 72.597151,12.4454913 72.8259916,12.2473846 C73.3306022,11.8104223 73.3849498,11.0474696 72.9472659,10.5433443 C72.9472659,10.5433443 64.9654207,1.35135167 64.9641305,1.34974104 C64.0466715,0.29703715 62.6271823,-0.193075755 61.2573638,0.069939156 L36.2500335,4.8567139 C34.8698939,5.12117837 33.7290774,6.1094573 33.2723637,7.43580622 L29.9782843,16.9984035 L27.9362969,15.8170107 C26.7201678,15.1136512 25.2097228,15.1136512 23.9939162,15.8170107 L1.96167545,28.5623622 C0.751674554,29.2623394 0,30.56469 0,31.9611011 L0,57.3266585 C0,58.7230696 0.751674554,60.0254202 1.96167545,60.7253975 C1.96167545,60.7253975 23.9987543,73.4739702 24.0010121,73.4752587 C24.5973846,73.8186437 25.2766494,74 25.9649453,74 C26.6564665,74 27.3381504,73.8170331 27.9361356,73.4710711 L49.9682151,60.7258806 C51.178216,60.0260645 51.9298906,58.7235528 51.9298906,57.3269807 L51.9298906,54.6628474 C51.9298906,54.6628474 71.116057,50.9885307 71.1276684,50.9859537 C71.7933866,50.8522719 72.4158847,50.548025 72.929365,50.1034928 C73.4515539,49.6510685 73.8466628,49.0668951 74.0714717,48.4141092 L82.3556962,24.3691024 C82.8106358,23.0487128 82.5242222,21.573059 81.6080533,20.5179392 L81.6080533,20.5179392 Z M45.6334671,53.4083323 C45.1033761,53.5091574 44.5555455,53.3195869 44.2028503,52.9130654 L35.9852299,43.4491994 L38.6527796,41.9060605 L45.4612319,49.747867 C45.6931366,50.0152306 46.0280922,50.1643744 46.3749817,50.1643744 C46.4506169,50.1643744 64.7433534,46.6710918 64.7433534,46.6710918 L67.0357914,49.3112268 L45.6334671,53.4083323 Z M29.8978111,46.9706679 L33.8538996,44.6821321 L42.3750281,54.4955035 C42.6959533,54.8653028 43.0796121,55.1653621 43.5011691,55.3887557 L29.8978111,63.2581038 L29.8978111,46.9706679 Z M51.9298906,32.3135056 L52.2271092,32.2566506 L62.9116607,44.5619796 L51.9298906,46.6635219 L51.9298906,32.3135056 Z M49.5108564,47.1264152 L46.8320179,47.6390769 L46.4835157,47.2377094 L46.4835157,37.3761803 L49.5108564,35.6249487 L49.5108564,47.1264152 Z M44.0643203,44.4514908 L40.7839487,40.6731278 L44.0643203,38.7754905 L44.0643203,44.4514908 Z M35.5598025,8.22179077 C35.7354243,7.71154507 36.1745597,7.33143778 36.705457,7.22964634 L61.7135937,2.44271054 C62.2407819,2.34140228 62.7873223,2.5311338 63.1408238,2.93749425 C63.4931965,3.34433789 63.6033432,3.91192182 63.4285276,4.41942946 L55.1438194,28.4647584 C55.0568954,28.71666 54.9054639,28.9408588 54.7037164,29.1152894 C54.5030979,29.2893979 54.2589367,29.4077788 53.9978423,29.4577081 L33.6294132,33.3567069 C33.6158666,33.3592839 33.60232,33.3613777 33.5889347,33.3644378 L28.9935761,34.2441607 C28.4621949,34.3451468 27.9150094,34.1555764 27.5632818,33.7508266 C27.2104253,33.344144 27.0997949,32.7759158 27.2747717,32.268086 L29.5027021,25.8014304 L32.1731546,27.3461799 L31.6677377,28.8118478 C31.5272725,29.2193357 31.6148415,29.6707937 31.897546,29.9964619 C32.1802504,30.32213 32.614709,30.4728845 33.0391688,30.3915479 L51.8794134,26.7843943 C52.3050021,26.7028967 52.6544719,26.4002604 52.795421,25.9910008 L59.0355616,7.87582872 C59.1760268,7.46834083 59.0882965,7.0168829 58.8055921,6.69137578 C58.5228876,6.36586865 58.0884291,6.21511424 57.6641305,6.29645076 L38.8254986,9.9032823 C38.3999099,9.98477988 38.0504401,10.2874161 37.909491,10.6965147 L34.7807122,19.7772132 L32.1112273,18.2326247 L35.5598025,8.22179077 Z M30.7376997,37.4067821 L29.9658666,36.5178787 L33.4021852,35.8600998 L33.4052493,35.8636432 L30.7376997,37.4067821 Z M24.9873329,31.4817794 C24.5327158,32.8015247 24.8191294,34.2771785 25.7359434,35.3337479 L28.6063693,38.6397149 L25.9649453,40.1677139 L11.7790838,31.9611011 L25.9649453,23.7548104 L27.3695978,24.5673702 L24.9873329,31.4817794 Z M44.9385592,25.6530919 L36.9138165,21.0109512 L39.9688954,12.1444657 L56.0686968,9.06157016 L50.7358553,24.5432109 L44.9385592,25.6530919 Z M3.17409538,30.6529522 L25.2061749,17.9077618 C25.6741774,17.6368548 26.2557132,17.6370159 26.7237157,17.9077618 L41.3125883,26.347432 L36.749806,27.2210345 L26.570994,21.3137485 C26.1963662,21.0967975 25.7336856,21.0967975 25.358574,21.3137485 L8.75980658,30.9158061 C8.38646897,31.1317908 8.15649945,31.5300981 8.15649945,31.9611011 C8.15649945,32.3921041 8.38646897,32.7904114 8.75980658,33.0063961 L25.3587353,42.6089368 C25.5461298,42.7174929 25.7554569,42.7716099 25.9649453,42.7716099 C26.1742724,42.7716099 26.3837607,42.7173318 26.5711553,42.6089368 L40.5765568,34.5070146 L49.2321837,32.8298717 C49.1080066,33.0062351 48.9480278,33.158439 48.7559565,33.2697332 L26.7235544,46.0150846 C26.2636154,46.2813208 25.6670815,46.2814818 25.2063362,46.0150846 L3.17425665,33.269411 C2.70835067,32.9997926 2.41903418,32.4985663 2.41903418,31.9611011 C2.41903418,31.4236358 2.70835067,30.9224096 3.17409538,30.6529522 Z M2.41903418,57.3266585 L2.41903418,35.6244655 L5.44637482,37.3758582 L5.44637482,55.7590381 C5.44637482,56.1900411 5.67634434,56.5883485 6.04968195,56.8043332 L22.0320795,66.0501206 L22.0320795,69.5443696 L3.17409538,58.6348074 C2.70835067,58.36535 2.41903418,57.8641238 2.41903418,57.3266585 Z M46.4833545,55.7054044 L49.5106951,55.1259018 L49.5106951,57.3269807 C49.5106951,57.8644459 49.2213786,58.3658332 48.7556339,58.6352906 L26.7233931,71.3806421 C26.2642604,71.646234 25.669178,71.6472004 25.2087552,71.3820916 C24.7413978,71.1131174 24.4509524,70.6110859 24.4509524,70.0723321 L24.4509524,59.6449908 C24.4509524,58.9778703 23.9095726,58.4370228 23.2414353,58.4370228 C22.5732981,58.4370228 22.0319182,58.9778703 22.0319182,59.6449908 L22.0319182,63.2582649 L7.86524774,55.0627653 L7.86524774,38.7751684 L22.0319182,46.9706679 L22.0319182,53.8000361 C22.0319182,54.4671566 22.5732981,55.0080041 23.2414353,55.0080041 C23.9095726,55.0080041 24.4509524,54.4671566 24.4509524,53.8000361 L24.4509524,48.3314842 C24.9291148,48.5305573 25.4440466,48.6344426 25.964784,48.6344426 C26.4855214,48.6344426 27.0006145,48.5305573 27.4786156,48.3314842 L27.4786156,65.3538479 C27.4786156,65.7856562 27.7095527,66.1847688 28.0841805,66.4004314 C28.2710912,66.5080211 28.479612,66.5618159 28.6881327,66.5618159 C28.8974598,66.5618159 29.1069481,66.5075379 29.2943427,66.3991429 L45.8800474,56.8046553 C46.2535462,56.5885095 46.4833545,56.1364074 46.4833545,55.7054044 L46.4833545,55.7054044 Z" id="Shape" fill="#FFFFFF" fill-rule="nonzero"></path>
                    </g>
                </g>
            </g>
        </g>
    </g>
</svg>