<?xml version="1.0" encoding="UTF-8"?>
<svg width="74px" height="59px" viewBox="0 0 74 59" version="1.1" xmlns="http://www.w3.org/2000/svg" xmlns:xlink="http://www.w3.org/1999/xlink">
    <title>brain@3x</title>
    <g id="Metadventu.re-LP" stroke="none" stroke-width="1" fill="none" fill-rule="evenodd">
        <g id="Metadventure" transform="translate(-573.000000, -1062.000000)">
            <g id="Group-6" transform="translate(238.000000, 1008.000000)">
                <g id="Group-9" transform="translate(262.000000, 54.000000)">
                    <g id="brain" transform="translate(73.000000, 0.000000)">
                        <path d="M46.0542805,47.5043095 C48.6946034,47.5043095 50.8425076,49.6048047 50.8425076,52.1867078 C50.8425076,54.7686109 48.6946034,56.8691061 46.0542805,56.8691061 C43.4141028,56.8691061 41.2661986,54.7686109 41.2661986,52.1867078 C41.2661986,49.6048047 43.4141028,47.5043095 46.0542805,47.5043095 Z M66.7827838,30.8933939 C69.4231067,30.8933939 71.5710109,32.9938891 71.5710109,35.5757922 C71.5710109,38.1576953 69.4231067,40.2581905 66.7827838,40.2581905 C64.1426061,40.2581905 61.9947018,38.1576953 61.9947018,35.5757922 C61.9947018,32.9938891 64.1426061,30.8933939 66.7827838,30.8933939 Z M58.7168144,12.9245044 C61.339469,12.9245044 63.4731174,15.0483545 63.4731174,17.658965 C63.4731174,20.2695756 61.339469,22.3934257 58.7168144,22.3934257 C56.0940156,22.3934257 53.9603672,20.2695756 53.9603672,17.658965 C53.9603672,15.0483545 56.0940156,12.9245044 58.7168144,12.9245044 Z M46.3658372,2.15516129 C48.9886361,2.15516129 51.1222844,4.27901134 51.1222844,6.88962191 C51.1222844,9.50023249 48.9886361,11.6240825 46.3658372,11.6240825 C43.7431827,11.6242262 41.6095343,9.50023249 41.6095343,6.88962191 C41.6095343,4.27901134 43.7431827,2.15516129 46.3658372,2.15516129 Z" id="Combined-Shape" fill="#1B1B29"></path>
                        <path d="M46.3658372,0.000718147714 C50.1819323,0.000718147714 53.2866671,3.09105139 53.2866671,6.88962191 C53.2866671,9.52105877 51.7961289,11.8116627 49.6119783,12.9714713 L49.6119783,12.9714713 L49.6119783,16.0745876 C49.6119783,16.9362212 49.2749117,17.7474408 48.6629686,18.3587282 L48.6629686,18.3587282 L38.0224308,28.9505452 L38.0224308,29.7524289 L41.9764693,29.7524289 L52.0992868,19.6760983 C51.9026165,19.0379523 51.7959846,18.360739 51.7959846,17.6591087 C51.7959846,13.8605381 54.9007193,10.7702049 58.7168144,10.7702049 C62.5329096,10.7702049 65.6375,13.8605381 65.6375,17.6591087 C65.6375,21.4576792 62.5329096,24.5480124 58.7168144,24.5480124 C58.0122358,24.5480124 57.3321867,24.4420138 56.6910966,24.2462468 L56.6910966,24.2462468 L45.6168165,35.2682343 C45.0148296,35.8698984 44.1775021,36.2157584 43.3208395,36.2157584 L43.3208395,36.2157584 L38.0224308,36.2157584 L38.0224308,53.1327332 C38.0224308,53.3361126 37.964714,53.5351832 37.8557734,53.7072513 C36.848614,55.2975176 35.4501342,56.6246546 33.8115523,57.54532 C32.1185722,58.4968657 30.1898187,59 28.2336497,59 C21.9664634,59 16.8677552,53.9247065 16.8677552,47.6863009 L16.8677552,47.6863009 L16.8677552,46.6291875 L11.3658946,46.6291875 C8.32724567,46.6291875 5.47271358,45.4525743 3.32795471,43.3159412 C1.18218578,41.1814625 0,38.3400393 0,35.315632 C0,32.0869835 1.38996651,29.0062734 3.81364216,26.8634643 C4.90434671,25.8958321 6.18263108,25.1439314 7.55643687,24.6561655 C7.40622872,23.9581259 7.32297213,23.2494577 7.30782145,22.5384915 C7.30132831,22.4402489 7.30132831,22.3507677 7.30132831,22.2770857 C7.30132831,20.8528552 7.56394006,19.4651065 8.08180468,18.1519016 C8.30026303,17.5980661 8.92836686,17.3256009 9.48461319,17.5427687 C10.0410038,17.7602239 10.3150147,18.3854433 10.0965563,18.9391352 C9.67796471,20.0002702 9.46571092,21.1233096 9.46571092,22.2769421 C9.46571092,22.3183074 9.46441229,22.3589546 9.46773101,22.3985963 C9.46960681,22.4217207 9.47076115,22.4449887 9.47119402,22.4682567 C9.4825931,23.0855764 9.55921225,23.7013163 9.69672269,24.3072893 L9.69672269,24.3072893 L13.8598405,24.3072893 C16.8888218,24.3072893 19.3531879,21.8542404 19.3531879,18.839169 C19.3531879,18.2442554 19.837721,17.7619474 20.4353792,17.7619474 C21.0330374,17.7619474 21.5175705,18.2442554 21.5175705,18.839169 C21.5175705,21.0207581 20.5906376,22.9897755 19.1099113,24.3805404 C22.8378439,24.8911434 25.7192143,28.0808683 25.7192143,31.9298528 C25.7192143,32.5247664 25.2346812,33.0070744 24.637023,33.0070744 C24.0393648,33.0070744 23.5548317,32.5247664 23.5548317,31.9298528 C23.5548317,28.9147814 21.0906099,26.4617325 18.0614843,26.4617325 L18.0614843,26.4617325 L9.01147916,26.4617325 C7.62425419,26.8268388 6.32649038,27.5198513 5.25223514,28.472977 C3.2894287,30.2084527 2.16438261,32.7021488 2.16438261,35.315632 C2.16438261,37.7643721 3.12118402,40.0645992 4.8584618,41.7926062 C6.59501811,43.5224805 8.90585728,44.474888 11.3658946,44.474888 L11.3658946,44.474888 L21.395355,44.4747443 C25.6177769,44.4747443 29.053085,47.8941329 29.053085,52.0973078 C29.053085,52.6922214 28.5685519,53.1745294 27.9708937,53.1745294 C27.3732355,53.1745294 26.8887024,52.6922214 26.8887024,52.0973078 C26.8887024,49.0822364 24.4244806,46.6291875 21.395355,46.6291875 L21.395355,46.6291875 L19.0322821,46.6291875 L19.0322821,47.6864445 C19.0322821,52.7368902 23.1600483,56.8457005 28.233794,56.8457005 C29.8176892,56.8457005 31.3784977,56.4389416 32.7475418,55.6693745 C33.9871559,54.9729149 35.0572266,53.9890525 35.8581925,52.8122957 L35.8581925,52.8122957 L35.8581925,38.3151914 C34.4654844,39.744449 32.5181173,40.6350958 30.3647008,40.6350958 C29.7670427,40.6350958 29.2825095,40.1527878 29.2825095,39.5578742 C29.2825095,38.9629606 29.7670427,38.4806526 30.3647008,38.4806526 C33.3936822,38.4806526 35.8580482,36.0277473 35.8580482,33.0125323 L35.8580482,33.0125323 L35.8580482,6.18813523 C35.2670275,5.31946375 34.5406607,4.56569591 33.69583,3.94464177 C32.1037101,2.77348647 30.2150699,2.15458677 28.2336497,2.15458677 C25.7754882,2.15458677 23.4639276,3.1071379 21.724774,4.83686849 C19.9885063,6.56530641 19.0321378,8.86610805 19.0321378,11.315279 L19.0321378,11.315279 L19.0321378,12.0678978 C19.0321378,12.6339419 18.5919024,13.1036105 18.0244012,13.1425341 C15.851794,13.2914779 13.7953419,14.210707 12.2336677,15.7307384 C11.8064186,16.1466896 11.121175,16.1389336 10.7033049,15.7136465 C10.2854348,15.2883594 10.2932265,14.6062627 10.7204757,14.1903116 C12.406674,12.5490568 14.5606676,11.4748514 16.869631,11.1074471 C16.9225862,8.16059974 18.0985674,5.39960904 20.1946998,3.31310267 C22.3427774,1.17646959 25.1975981,0 28.2336497,0 C30.6814222,0 33.0149152,0.764827316 34.9819061,2.21175133 C36.125133,3.05212779 37.0920349,4.08855857 37.8553405,5.29231777 C37.9645697,5.46438596 38.0224308,5.66374376 38.0224308,5.86726683 L38.0224308,5.86726683 L38.0224308,19.8095302 L43.1188304,14.7365347 L43.1188304,12.9710404 C40.9351127,11.8110882 39.4451517,9.52077151 39.4451517,6.88962191 C39.4451517,3.09105139 42.5497421,0.000718147714 46.3658372,0.000718147714 Z M66.7827838,28.7625 C70.6243759,28.7625 73.75,31.8188505 73.75,35.5756502 C73.75,39.3324499 70.6245212,42.3888004 66.782929,42.3888004 C64.0685254,42.3888004 61.7134857,40.8619036 60.564073,38.6412339 L60.564073,38.6412339 L54.2666333,38.6412339 L53.3831848,39.5063192 C53.1703844,39.7145647 52.8913471,39.8188295 52.6123099,39.8188295 C52.3337084,39.8188295 52.0551069,39.7149908 51.8424517,39.5073136 C51.4167056,39.0916749 51.4162699,38.4170788 51.8414349,38.0007299 L51.8414349,38.0007299 L53.0440114,36.8231344 C53.248387,36.6231278 53.5256812,36.5106241 53.8148864,36.5106241 L53.8148864,36.5106241 L59.8834022,36.5106241 C59.8402611,36.2046481 59.8161485,35.8929902 59.8161485,35.5756502 C59.8161485,35.1673981 59.8550772,34.7680952 59.925817,34.3794461 L59.925817,34.3794461 L52.9129903,34.3794461 C52.6224778,34.3794461 52.3498318,34.4901031 52.1451657,34.690962 L52.1451657,34.690962 L45.2848581,41.3999894 C45.0778679,41.6017006 44.9647133,41.8683287 44.9647133,42.1524289 L44.9647133,42.1524289 L44.9647133,45.4575092 C45.3200101,45.4026779 45.683877,45.3735576 46.054571,45.3735576 C46.4249744,45.3735576 46.7885508,45.4026779 47.1435571,45.4573672 L47.1435571,45.4573672 L47.1435571,43.0364069 C47.1435571,42.7538692 47.2583096,42.4828375 47.4626851,42.2831151 L47.4626851,42.2831151 L48.7801593,40.9947204 C49.2053244,40.5785136 49.8951464,40.5786556 50.3207472,40.9947204 C50.7462028,41.4107852 50.7462028,42.0852392 50.3206019,42.5013041 L50.3206019,42.5013041 L49.3222557,43.4777566 L49.3222557,46.1718793 C51.5209996,47.3189341 53.0214967,49.5843495 53.0214967,52.1868498 C53.0214967,55.9436495 49.8960179,59 46.0544257,59 C42.2128336,59 39.0875,55.9436495 39.0875,52.1868498 C39.0875,49.5846336 40.5874161,47.3195023 42.7857242,46.1723055 L42.7857242,46.1723055 L42.7857242,42.1524289 C42.7857242,41.2977133 43.1264954,40.4949881 43.7452871,39.8919853 L43.7452871,39.8919853 L50.6028348,33.1857989 C51.2178498,32.5819438 52.0386929,32.2486942 52.912845,32.2486942 L52.912845,32.2486942 L60.7062789,32.2486942 C61.9008663,30.1705008 64.1761603,28.7625 66.7827838,28.7625 Z M46.0542805,47.5043095 C43.4141028,47.5043095 41.2661986,49.6048047 41.2661986,52.1867078 C41.2661986,54.7686109 43.4141028,56.8691061 46.0542805,56.8691061 C48.6946034,56.8691061 50.8425076,54.7686109 50.8425076,52.1867078 C50.8425076,49.6048047 48.6946034,47.5043095 46.0542805,47.5043095 Z M66.7827838,30.8933939 C64.1426061,30.8933939 61.9947018,32.9938891 61.9947018,35.5757922 C61.9947018,38.1576953 64.1426061,40.2581905 66.7827838,40.2581905 C69.4231067,40.2581905 71.5710109,38.1576953 71.5710109,35.5757922 C71.5710109,32.9938891 69.4231067,30.8933939 66.7827838,30.8933939 Z M53.1211639,21.7060147 L43.1901108,31.591318 C42.9869474,31.7934047 42.7117822,31.9068721 42.4247851,31.9068721 L42.4247851,31.9068721 L38.0224308,31.9068721 L38.0224308,34.0613152 L43.3209838,34.0613152 C43.6062494,34.0613152 43.8847333,33.9465552 44.0851551,33.7463356 L44.0851551,33.7463356 L54.6518153,23.2294932 C54.0652676,22.8042062 53.5484131,22.2898688 53.1211639,21.7060147 L53.1211639,21.7060147 Z M47.4475956,13.6939279 C47.0949456,13.7492253 46.7337823,13.7786693 46.3658372,13.7786693 C45.9976036,13.7786693 45.6361517,13.7492253 45.283213,13.6937842 L45.283213,13.6937842 L45.283213,15.1826481 C45.283213,15.4683273 45.1692222,15.7423724 44.9663474,15.9443156 L44.9663474,15.9443156 L38.0224308,22.8562 L38.0224308,25.9035881 L47.1311629,16.8368295 C47.3347592,16.6334501 47.4475956,16.3621339 47.4475956,16.0745876 L47.4475956,16.0745876 Z M58.7168144,12.9245044 C56.0940156,12.9245044 53.9603672,15.0483545 53.9603672,17.658965 C53.9603672,20.2695756 56.0940156,22.3934257 58.7168144,22.3934257 C61.339469,22.3934257 63.4731174,20.2695756 63.4731174,17.658965 C63.4731174,15.0483545 61.339469,12.9245044 58.7168144,12.9245044 Z M46.3658372,2.15516129 C43.7431827,2.15516129 41.6095343,4.27901134 41.6095343,6.88962191 C41.6095343,9.50023249 43.7431827,11.6242262 46.3658372,11.6240825 C48.9886361,11.6240825 51.1222844,9.50023249 51.1222844,6.88962191 C51.1222844,4.27901134 48.9886361,2.15516129 46.3658372,2.15516129 Z" id="Combined-Shape" fill="#FFFFFF" fill-rule="nonzero"></path>
                    </g>
                </g>
            </g>
        </g>
    </g>
</svg>