<?xml version="1.0" encoding="UTF-8"?>
<svg width="66px" height="66px" viewBox="0 0 66 66" version="1.1" xmlns="http://www.w3.org/2000/svg" xmlns:xlink="http://www.w3.org/1999/xlink">
    <title>decentralized</title>
    <g id="Metadventu.re-LP" stroke="none" stroke-width="1" fill="none" fill-rule="evenodd">
        <g id="Metadventure" transform="translate(-1046.000000, -1318.000000)" fill-rule="nonzero">
            <g id="decentralized" transform="translate(1046.000000, 1318.000000)">
                <path d="M48.956044,12.3296703 C52.3553219,12.3296703 55.1208791,9.56411307 55.1208791,6.16483516 C55.1208791,2.76555725 52.3553219,0 48.956044,0 C45.556766,0 42.7912088,2.76555725 42.7912088,6.16483516 C42.7912088,9.56411307 45.556766,12.3296703 48.956044,12.3296703 Z M29.3736264,55.1208791 C26.3743687,55.1208791 23.9340659,57.5611819 23.9340659,60.5604396 C23.9340659,63.5596972 26.3743687,66 29.3736264,66 C32.372884,66 34.8131868,63.5596972 34.8131868,60.5604396 C34.8131868,57.5611819 32.372884,55.1208791 29.3736264,55.1208791 Z M11.2417582,11.6043956 C14.2410159,11.6043956 16.6813187,9.16409283 16.6813187,6.16483516 C16.6813187,3.1655775 14.2410159,0.725274725 11.2417582,0.725274725 C8.2425007,0.725274725 5.8021978,3.1655775 5.8021978,6.16483516 C5.8021978,9.16409283 8.24200065,11.6043956 11.2417582,11.6043956 Z M5.43956044,52.2197802 C2.44030277,52.2197802 0,54.660083 0,57.6593407 C0,60.6585983 2.44030277,63.0989011 5.43956044,63.0989011 C8.43881811,63.0989011 10.8791209,60.6585983 10.8791209,57.6593407 C10.8791209,54.660083 8.43881811,52.2197802 5.43956044,52.2197802 Z M60.5604396,50.7692308 C57.5611819,50.7692308 55.1208791,53.2090336 55.1208791,56.2087912 C55.1208791,59.2080487 57.5611819,61.6483516 60.5604396,61.6483516 C63.5596972,61.6483516 66,59.2080487 66,56.2087912 C66,53.2090336 63.5596972,50.7692308 60.5604396,50.7692308 Z" id="Combined-Shape" fill="#1B1B29"></path>
                <path d="M48.956044,12.3296703 C52.3553219,12.3296703 55.1208791,9.56411307 55.1208791,6.16483516 C55.1208791,2.76555725 52.3553219,0 48.956044,0 C45.556766,0 42.7912088,2.76555725 42.7912088,6.16483516 C42.7912088,9.56411307 45.556766,12.3296703 48.956044,12.3296703 Z M48.956044,1.94679005 C51.2820525,1.94679005 53.1740891,3.83882663 53.1740891,6.16483516 C53.1740891,8.4908437 51.2820525,10.3828803 48.956044,10.3828803 C46.6300354,10.3828803 44.7379988,8.4908437 44.7379988,6.16483516 C44.7379988,3.83882663 46.6300354,1.94679005 48.956044,1.94679005 Z M29.3736264,55.1208791 C26.3743687,55.1208791 23.9340659,57.5611819 23.9340659,60.5604396 C23.9340659,63.5596972 26.3743687,66 29.3736264,66 C32.372884,66 34.8131868,63.5596972 34.8131868,60.5604396 C34.8131868,57.5611819 32.372884,55.1208791 29.3736264,55.1208791 Z M29.3736264,64.0801551 C27.4327833,64.0801551 25.8539108,62.5012827 25.8539108,60.5604396 C25.8539108,58.6195965 27.4327833,57.040724 29.3736264,57.040724 C31.3144695,57.040724 32.893342,58.6195965 32.893342,60.5604396 C32.893342,62.5012827 31.3144695,64.0801551 29.3736264,64.0801551 Z M11.2417582,11.6043956 C14.2410159,11.6043956 16.6813187,9.16409283 16.6813187,6.16483516 C16.6813187,3.1655775 14.2410159,0.725274725 11.2417582,0.725274725 C8.2425007,0.725274725 5.8021978,3.1655775 5.8021978,6.16483516 C5.8021978,9.16409283 8.24200065,11.6043956 11.2417582,11.6043956 Z M11.2417582,2.64511959 C13.1826015,2.64511959 14.7614738,4.22399206 14.7614738,6.16483516 C14.7614738,8.10567827 13.1826015,9.68455074 11.2417582,9.68455074 C9.30091514,9.68455074 7.72204266,8.10567827 7.72204266,6.16483516 C7.72204266,4.22399206 9.30091514,2.64511959 11.2417582,2.64511959 Z M5.43956044,52.2197802 C2.44030277,52.2197802 0,54.660083 0,57.6593407 C0,60.6585983 2.44030277,63.0989011 5.43956044,63.0989011 C8.43881811,63.0989011 10.8791209,60.6585983 10.8791209,57.6593407 C10.8791209,54.660083 8.43881811,52.2197802 5.43956044,52.2197802 Z M5.43956044,61.1790562 C3.49871734,61.1790562 1.91984486,59.6001838 1.91984486,57.6593407 C1.91984486,55.7184976 3.49871734,54.1396251 5.43956044,54.1396251 C7.38040354,54.1396251 8.95927602,55.7184976 8.95927602,57.6593407 C8.95927602,59.6001838 7.38040354,61.1790562 5.43956044,61.1790562 Z M60.5604396,50.7692308 C57.5611819,50.7692308 55.1208791,53.2090336 55.1208791,56.2087912 C55.1208791,59.2080487 57.5611819,61.6483516 60.5604396,61.6483516 C63.5596972,61.6483516 66,59.2080487 66,56.2087912 C66,53.2090336 63.5596972,50.7692308 60.5604396,50.7692308 Z M60.5604396,59.7285068 C58.6195965,59.7285068 57.040724,58.1496343 57.040724,56.2087912 C57.040724,54.267948 58.6195965,52.6890756 60.5604396,52.6890756 C62.5012827,52.6890756 64.0801551,54.267948 64.0801551,56.2087912 C64.0801551,58.1496343 62.5012827,59.7285068 60.5604396,59.7285068 Z" id="Combined-Shape" fill="#FFFFFF"></path>
                <path d="M51.5634545,16 C49.4323087,16 47.5140275,17.2970824 46.6355857,19.2113128 L44.1146875,17.9841635 C43.6364914,17.7513931 43.0638553,17.9586404 42.8360001,18.4471519 C42.6076451,18.936174 42.8110159,19.5206523 43.289212,19.7539331 L47.9262656,22.0111935 L33.7827526,28.8968074 L19.6392397,22.0111935 L21.3596464,21.1735264 C21.8378426,20.940756 22.0412134,20.3557672 21.8133582,19.8672556 C21.5850032,19.3787441 21.0128668,19.1709863 20.534171,19.4042671 L16.996419,21.126564 C16.6601326,21.2899116 16.4497663,21.6380462 16.4497663,22.0111935 L16.4497663,37.8043591 C16.000052,37.6976726 15.538845,37.6415219 15.0761391,37.6415219 C11.7257679,37.6415219 9,40.4260889 9,43.8487326 C9,47.2713763 11.7257679,50.0559433 15.0761391,50.0559433 C17.7524386,50.0559433 20.039985,48.3025083 20.8434744,45.8078834 L33.3700149,51.9063659 C33.6178575,52.0268348 33.9311583,52.0355126 34.1954903,51.9063659 L50.5690862,43.9350005 C50.9033739,43.7726739 51.115739,43.4281124 51.115739,43.0503709 L51.115739,27.0887532 C51.2641446,27.1010043 51.4135497,27.1076402 51.5634545,27.1076402 C54.5615494,27.1076402 57,24.6160781 57,21.5538201 C57,18.4915621 54.5610498,16 51.5634545,16 Z M15.0761391,48.0957715 C12.7835958,48.0957715 10.9187808,46.1907295 10.9187808,43.8487326 C10.9187808,41.5072461 12.7835958,39.6016937 15.0761391,39.6016937 C15.5513371,39.6016937 16.011045,39.6828571 16.4497663,39.8405896 L16.4497663,43.0503709 C16.4497663,43.4281124 16.6626309,43.7726739 16.996419,43.9350005 L19.0905882,44.9549025 C18.6143908,46.7849066 16.9904227,48.0957715 15.0761391,48.0957715 Z M34.742143,49.4689128 L34.742143,45.0432123 C34.742143,44.5021232 34.3129157,44.0631264 33.7827526,44.0631264 C33.2530892,44.0631264 32.8233622,44.5021232 32.8233622,45.0432123 L32.8233622,49.4689128 L18.368547,42.4316917 L18.368547,23.5640171 L32.8233622,30.6012381 L32.8233622,40.8615124 C32.8233622,41.4026015 33.2530892,41.8415983 33.7827526,41.8415983 C34.3129157,41.8415983 34.742143,41.4026015 34.742143,40.8615124 L34.742143,30.6012381 L49.1969582,23.5640171 L49.1969582,42.4316917 L34.742143,49.4689128 Z M51.5634545,25.1474684 C51.4125503,25.1474684 51.263645,25.1352174 51.115739,25.1158198 L51.115739,22.0111935 C51.115739,21.6446822 50.9103694,21.2924639 50.5690862,21.126564 L48.369484,20.0556159 C48.9341251,18.8080482 50.1778349,17.9601718 51.5634545,17.9601718 C53.5032218,17.9601718 55.0812192,19.572209 55.0812192,21.5538201 C55.0812192,23.5354312 53.5032218,25.1474684 51.5634545,25.1474684 Z" id="Shape" fill="#FFFFFF"></path>
                <path d="M23.9740642,19 C24.1144513,19 24.2568657,18.9671355 24.3921847,18.8975723 L33.4803523,14.2165732 L39.6082262,17.3726598 C40.0927393,17.62243 40.6740535,17.400047 40.9051601,16.8758584 C41.1362668,16.3511219 40.9305008,15.7239579 40.445481,15.47364 L33.8989796,12.1022908 C33.6339166,11.9659031 33.3262812,11.9659031 33.061725,12.1022908 L23.55493,16.9985525 C23.0699101,17.2483226 22.8636373,17.8760344 23.0947439,18.400223 C23.2619922,18.7787124 23.6106794,19 23.9740642,19 Z" id="Path" fill="#FFFFFF"></path>
            </g>
        </g>
    </g>
</svg>