<?xml version="1.0" encoding="UTF-8"?>
<svg width="69px" height="69px" viewBox="0 0 69 69" version="1.1" xmlns="http://www.w3.org/2000/svg" xmlns:xlink="http://www.w3.org/1999/xlink">
    <title>network</title>
    <g id="Metadventu.re-LP" stroke="none" stroke-width="1" fill="none" fill-rule="evenodd">
        <g id="Metadventure" transform="translate(-806.000000, -1316.000000)">
            <g id="Group-6" transform="translate(238.000000, 1008.000000)">
                <g id="Group-21" transform="translate(492.000000, 308.000000)">
                    <g id="network" transform="translate(76.000000, 0.000000)">
                        <path d="M57.6474446,49.8256816 C62.3669359,49.8256816 66.2065014,53.6731055 66.2065014,58.402166 C66.2065014,60.3330879 65.5658337,62.1167109 64.4870198,63.5516953 C64.011868,62.0641523 63.0612953,60.7570605 61.7739044,59.847123 C62.3530756,59.0242441 62.6947381,58.0219922 62.6947381,56.9407676 C62.6947381,54.1524668 60.4305342,51.8840918 57.6474446,51.8840918 C54.8642204,51.8840918 52.6000165,54.1526016 52.6000165,56.9407676 C52.6000165,58.022666 52.9420827,59.025457 53.5219267,59.8487402 C52.2342667,60.759082 51.2834249,62.0656348 50.8081385,63.5522344 C49.7290555,62.1171152 49.0883878,60.3333574 49.0883878,58.402166 C49.0883878,53.6731055 52.9279533,49.8256816 57.6474446,49.8256816 Z M10.5776782,49.7806699 C15.2971695,49.7806699 19.1367351,53.627959 19.1367351,58.3570195 C19.1367351,60.2879414 18.4963365,62.0714297 17.4175226,63.5064141 C16.9423708,62.0202188 15.9912598,60.7138008 14.7031961,59.8035938 C15.2830401,58.9803105 15.6251063,57.9775195 15.6251063,56.8956211 C15.6251063,54.1074551 13.3609024,51.8389453 10.5776782,51.8389453 C7.79458861,51.8389453 5.53038469,54.1074551 5.53038469,56.8956211 C5.53038469,57.9768457 5.87191265,58.9790977 6.4510838,59.8019766 C5.16328922,60.7120488 4.21244738,62.0188711 3.73743015,63.5060098 C2.65901994,62.0710254 2.01862136,60.2876719 2.01862136,58.3570195 C2.01862136,53.627959 5.85818694,49.7806699 10.5776782,49.7806699 Z M57.0549514,2.02148438 C61.7744427,2.02148438 65.6140083,5.86877344 65.6140083,10.597834 C65.6140083,12.5287559 64.9734751,14.3122441 63.8946612,15.7472285 C63.4195094,14.261168 62.4669182,12.9562324 61.1792582,12.0457559 C61.759775,11.2223379 62.102245,10.2190078 62.102245,9.13643555 C62.102245,6.34826953 59.838041,4.07975977 57.0549514,4.07975977 C54.2717273,4.07975977 52.0075234,6.34826953 52.0075234,9.13643555 C52.0075234,10.2190078 52.3499933,11.2223379 52.9305101,12.0458906 C51.6428501,12.9563672 50.6903934,14.261168 50.2151071,15.7472285 C49.1364277,14.3122441 48.4958946,12.5287559 48.4958946,10.597834 C48.4958946,5.86877344 52.3354602,2.02148438 57.0549514,2.02148438 Z M11.1701714,2.02148438 C15.8896626,2.02148438 19.7292282,5.86877344 19.7292282,10.597834 C19.7292282,12.5287559 19.0886951,14.3122441 18.0098811,15.7473633 C17.5347294,14.261168 16.5822727,12.9563672 15.2946127,12.0458906 C15.8751295,11.2223379 16.2175994,10.2190078 16.2175994,9.13643555 C16.2175994,6.34826953 13.9533955,4.07975977 11.1701714,4.07975977 C8.38708176,4.07975977 6.12287784,6.34826953 6.12287784,9.13643555 C6.12287784,10.2190078 6.46534777,11.2223379 7.04573001,12.0458906 C5.75807,12.9563672 4.8054788,14.261168 4.330327,15.7473633 C3.25151309,14.3123789 2.61097995,12.5287559 2.61097995,10.5979687 C2.61097995,5.86877344 6.4506801,2.02148438 11.1701714,2.02148438 Z" id="Combined-Shape" fill="#1B1B29"></path>
                        <path d="M57.6474446,47.8041973 C55.095539,47.8041973 52.7518067,48.7142695 50.922654,50.2275527 L48.1598838,47.4315703 C50.9653113,44.308377 52.7501919,40.248293 52.9856821,35.7829688 L55.7169638,35.7829688 C56.2001896,38.717625 58.7490001,40.9634941 61.8129285,40.9634941 C65.2204034,40.9634941 67.9925931,38.1861094 67.9925931,34.7722266 C67.9925931,31.3605 65.2204034,28.5847324 61.8129285,28.5847324 C58.7492693,28.5847324 56.2004587,30.8289844 55.7170984,33.7614844 L52.9858166,33.7614844 C52.9233781,32.5686738 52.7519413,31.3896094 52.4709679,30.2445059 C52.3380169,29.7024785 51.7906033,29.3710898 51.2500526,29.5042383 C50.708829,29.6375215 50.3779317,30.1849395 50.5108827,30.7269668 C50.8324949,32.0368887 50.9954541,33.3978867 50.9954541,34.7722266 C50.9954541,39.6089648 48.9594737,43.9776621 45.7020397,47.0641992 C45.2727749,43.099125 41.8647618,42.183123 39.33183,41.5029609 C39.1632191,41.4576797 38.9956847,41.412668 38.8259972,41.3661738 C38.6285892,41.3128066 38.4671102,41.0454316 38.3420986,40.7675449 C40.8588825,39.0398496 42.7292124,36.0960293 42.7292124,33.5249707 L42.7292124,31.1958164 C42.7292124,28.3002422 41.8056874,25.8415781 40.0580815,24.085582 C38.4944271,22.5140801 36.3887417,21.6277266 34.1293821,21.5898574 C34.117944,21.5897227 34.1065059,21.5897227 34.0947987,21.5898574 C32.861907,21.6114199 31.6319757,21.8969883 30.5383595,22.4158359 C30.0346798,22.6547754 29.8197782,23.2574473 30.0583634,23.7620098 C30.2969485,24.2665723 30.8989959,24.4816582 31.402541,24.2427188 C32.2336193,23.8485293 33.1704663,23.6303437 34.112696,23.6114766 C37.0159528,23.6676738 40.115272,25.6692129 40.6348305,29.9147344 C40.2328825,29.7228281 39.9683262,29.4523535 39.6810282,29.1586992 C39.1104693,28.5757031 38.3290457,27.7773516 36.7209846,28.1922949 C36.3267068,28.2941777 35.991638,28.3840664 35.7015142,28.4619609 C34.8651878,28.6863457 34.4454772,28.798875 34.1124268,28.798875 C33.7793765,28.798875 33.3596658,28.6863457 32.5233395,28.4619609 C32.2332156,28.3840664 31.8981468,28.2941777 31.5034654,28.1922949 C29.8951351,27.777082 29.1141153,28.5758379 28.5438255,29.1586992 C28.2561238,29.4527578 27.9912983,29.723502 27.5882738,29.915543 C27.734816,28.6937578 28.0981436,27.6110508 28.6739506,26.6848066 C28.9683805,26.2109707 28.8237223,25.5875449 28.350589,25.292543 C27.8774557,24.997541 27.2550889,25.1424141 26.9603899,25.6163848 C25.9884212,27.1798008 25.4956413,29.0569512 25.4956413,31.1958164 L25.4956413,33.5249707 C25.4956413,36.0962988 27.366644,39.0406582 29.8824859,40.7678145 C29.7572052,41.0457012 29.5949188,41.3132109 29.3950886,41.367252 C29.2293036,41.412668 29.0616346,41.4576797 28.8931582,41.5029609 C26.3602264,42.183123 22.9522133,43.099125 22.5229485,47.0641992 C19.2653799,43.9776621 17.2295341,39.6089648 17.2295341,34.7722266 C17.2295341,25.4445586 24.8030312,17.8559063 34.1122923,17.8559063 C40.074364,17.8559063 45.6570948,21.060498 48.6818645,26.2190566 C48.6844213,26.2230996 48.6867089,26.2271426 48.6891311,26.2311855 C48.74215,26.3186484 48.7927467,26.4104238 48.8432089,26.5012559 L48.8886921,26.5831934 C49.160515,27.0706406 49.7754807,27.2452969 50.261936,26.9728008 C50.7485259,26.7005742 50.922654,26.0849648 50.6509657,25.5975176 L50.6080392,25.5201621 C50.5464081,25.4088457 50.4839695,25.2967207 50.4192434,25.1894473 C49.7725202,24.0874688 49.0149148,23.0570508 48.1649973,22.1112656 L50.9783642,19.264207 C52.6991915,20.4791191 54.7945154,21.1955332 57.0549514,21.1955332 C59.6168149,21.1955332 61.9684866,20.2777793 63.8008689,18.7538496 C63.859405,18.7131504 63.9130967,18.6661172 63.961675,18.6142324 C66.2073088,16.6694297 67.6324951,13.7979785 67.6324951,10.5976992 C67.6326296,4.75412695 62.8874363,0 57.0549514,0 C51.2224666,0 46.4774078,4.75412695 46.4774078,10.597834 C46.4774078,13.4485313 47.6087024,16.0380527 49.4425649,17.9447168 L46.7372543,20.6824805 C45.7870853,19.8272578 44.7518707,19.0654277 43.6443943,18.4162617 C41.0529264,16.8970488 38.1255823,16.0245762 35.1218048,15.8639355 L35.1218048,13.1250938 C38.0507637,12.6408809 40.292226,10.087207 40.292226,7.01778516 C40.292226,3.60605859 37.5200362,0.830291016 34.1125614,0.830291016 C30.7050866,0.830291016 27.9328968,3.60605859 27.9328968,7.01778516 C27.9328968,10.087207 30.1743591,12.6408809 33.103318,13.1250938 L33.103318,15.8616445 C28.6508053,16.0974844 24.6027973,17.8852852 21.4871956,20.6924531 L18.7642569,17.964123 C20.6090193,16.0555723 21.7478496,13.4580996 21.7478496,10.597834 C21.747715,4.75412695 17.0026562,0 11.1701714,0 C5.33768648,0 0.592493157,4.75412695 0.592493157,10.597834 C0.592493157,13.798248 2.0176794,16.6695645 4.26331324,18.6143672 C4.31189149,18.666252 4.36558324,18.7132852 4.42411936,18.7539844 C6.25650167,20.2779141 8.60817335,21.195668 11.1700368,21.195668 C13.420515,21.195668 15.5074958,20.4855879 17.224017,19.2805137 L20.0598563,22.1219121 C17.2576584,25.2434883 15.474258,29.3002031 15.2387679,33.7616191 L12.5080244,33.7616191 C12.0245295,30.8291191 9.47585354,28.5848672 6.41219428,28.5848672 C3.00471944,28.5848672 0.232529679,31.3606348 0.232529679,34.7723613 C0.232529679,38.1862441 3.00471944,40.9636289 6.41219428,40.9636289 C9.47612267,40.9636289 12.0249332,38.7177598 12.508159,35.7831035 L15.2382296,35.7831035 C15.4734506,40.2457324 17.2584658,44.302582 20.0607983,47.4249668 L17.3043527,50.184293 C15.4747963,48.6700664 13.1303912,47.7591855 10.5775436,47.7591855 C4.74505876,47.7591855 0,52.5133125 0,58.3570195 C0,64.2007266 4.74519332,68.9549883 10.5775436,68.9549883 C16.4098939,68.9549883 21.1550873,64.2007266 21.1550873,58.3570195 C21.1550873,55.7975508 20.2446152,53.4472383 18.7314229,51.613752 L21.4874648,48.8546953 C21.7298177,49.0731504 21.9775534,49.2858105 22.230537,49.4918672 C22.4716789,49.6883555 22.7204911,49.9252734 22.9912374,50.0783672 C25.8593726,52.1769375 29.3365525,53.4865898 33.1029143,53.6863125 L33.1029143,56.4234023 C30.1739554,56.9073457 27.9324931,59.4594023 27.9324931,62.5270723 C27.9324931,65.9409551 30.7046829,68.7183398 34.1121577,68.7183398 C37.5196325,68.7183398 40.2918223,65.9409551 40.2918223,62.5270723 C40.2918223,59.4595371 38.05036,56.9073457 35.1214011,56.4234023 L35.1214011,53.6863125 C38.8874938,53.4865898 42.3644045,52.1770723 45.2324052,50.0787715 C45.3010337,50.039959 45.3644142,49.9930605 45.4218738,49.9398281 C45.8748222,49.5998145 46.3113536,49.2391816 46.7317371,48.8607598 L49.4946419,51.656877 C47.9805076,53.4907676 47.0693627,55.8417539 47.0693627,58.402166 C47.0693627,61.5950332 48.4879552,64.4602852 50.724304,66.4049531 C50.7823019,66.4697754 50.84797,66.5274551 50.9209046,66.5755664 C52.7503265,68.0895234 55.0944625,69 57.6470409,69 C60.1996193,69 62.5437553,68.0893887 64.3731772,66.5755664 C64.4459773,66.5274551 64.5117799,66.4697754 64.5697778,66.4049531 C66.8062611,64.4602852 68.2247191,61.5950332 68.2247191,58.402166 C68.2247191,52.558459 63.4797949,47.8041973 57.6474446,47.8041973 L57.6474446,47.8041973 Z M61.8129285,30.6063516 C64.1074097,30.6063516 65.9741063,32.4752813 65.9741063,34.7723613 C65.9741063,37.0715977 64.1074097,38.9421445 61.8129285,38.9421445 C59.5184473,38.9421445 57.6517507,37.0715977 57.6517507,34.7723613 C57.6517507,32.4752813 59.5184473,30.6063516 61.8129285,30.6063516 Z M57.0549514,19.1743184 C55.1285076,19.1743184 53.3490097,18.532834 51.9169606,17.452418 C52.0698273,15.8000566 53.0177087,14.3131875 54.4513726,13.4668594 C55.212073,13.927623 56.1030331,14.1932461 57.0549514,14.1932461 C58.0068698,14.1932461 58.8978299,13.927623 59.6585303,13.4668594 C61.0921942,14.3131875 62.0400756,15.8000566 62.1929423,17.452418 C60.7608932,18.532834 58.9813952,19.1743184 57.0549514,19.1743184 Z M54.0260102,9.13643555 C54.0260102,7.46291602 55.3848555,6.10124414 57.0549514,6.10124414 C58.7250474,6.10124414 60.0837582,7.46291602 60.0837582,9.13643555 C60.0837582,10.8100898 58.7250474,12.171627 57.0549514,12.171627 C55.3848555,12.171627 54.0260102,10.8100898 54.0260102,9.13643555 L54.0260102,9.13643555 Z M48.4958946,10.597834 C48.4958946,5.86877344 52.3354602,2.02148438 57.0549514,2.02148438 C61.7744427,2.02148438 65.6140083,5.86877344 65.6140083,10.597834 C65.6140083,12.5287559 64.9734751,14.3122441 63.8946612,15.7472285 C63.4195094,14.261168 62.4669182,12.9562324 61.1792582,12.0457559 C61.759775,11.2223379 62.102245,10.2190078 62.102245,9.13643555 C62.102245,6.34826953 59.838041,4.07975977 57.0549514,4.07975977 C54.2717273,4.07975977 52.0075234,6.34826953 52.0075234,9.13643555 C52.0075234,10.2190078 52.3499933,11.2223379 52.9305101,12.0458906 C51.6428501,12.9563672 50.6903934,14.261168 50.2151071,15.7472285 C49.1364277,14.3122441 48.4958946,12.5287559 48.4958946,10.597834 L48.4958946,10.597834 Z M29.9513836,7.01778516 C29.9513836,4.72070508 31.8180802,2.85177539 34.1125614,2.85177539 C36.4070426,2.85177539 38.2737392,4.72070508 38.2737392,7.01778516 C38.2737392,9.31702148 36.4070426,11.1875684 34.1125614,11.1875684 C31.8180802,11.1875684 29.9513836,9.31702148 29.9513836,7.01778516 Z M11.1701714,19.1743184 C9.24372756,19.1743184 7.4642296,18.532834 6.0321805,17.452418 C6.18504724,15.8000566 7.13292864,14.3131875 8.56659252,13.4668594 C9.32729291,13.927623 10.218253,14.1932461 11.1701714,14.1932461 C12.1220897,14.1932461 13.0130498,13.927623 13.7737502,13.4668594 C15.2072795,14.3131875 16.1552955,15.8000566 16.3081622,17.452418 C14.8761131,18.532834 13.0966152,19.1743184 11.1701714,19.1743184 Z M8.14136464,9.13643555 C8.14136464,7.46291602 9.50007538,6.10124414 11.1701714,6.10124414 C12.8402673,6.10124414 14.1991126,7.46291602 14.1991126,9.13643555 C14.1991126,10.8100898 12.8402673,12.171627 11.1701714,12.171627 C9.50007538,12.171627 8.14136464,10.8100898 8.14136464,9.13643555 L8.14136464,9.13643555 Z M15.2946127,12.0458906 C15.8751295,11.2223379 16.2175994,10.2190078 16.2175994,9.13643555 C16.2175994,6.34826953 13.9533955,4.07975977 11.1701714,4.07975977 C8.38708176,4.07975977 6.12287784,6.34826953 6.12287784,9.13643555 C6.12287784,10.2190078 6.46534777,11.2223379 7.04573001,12.0458906 C5.75807,12.9563672 4.8054788,14.261168 4.330327,15.7473633 C3.25151309,14.3123789 2.61097995,12.5287559 2.61097995,10.5979687 C2.61097995,5.86877344 6.4506801,2.02148438 11.1701714,2.02148438 C15.8896626,2.02148438 19.7292282,5.86877344 19.7292282,10.597834 C19.7292282,12.5287559 19.0886951,14.3122441 18.0098811,15.7473633 C17.5347294,14.261168 16.5822727,12.9563672 15.2946127,12.0458906 L15.2946127,12.0458906 Z M6.41219428,38.9421445 C4.11771306,38.9421445 2.25101647,37.0715977 2.25101647,34.7723613 C2.25101647,32.4752813 4.11771306,30.6063516 6.41219428,30.6063516 C8.70667551,30.6063516 10.5733721,32.4752813 10.5733721,34.7723613 C10.5733721,37.0715977 8.70667551,38.9421445 6.41219428,38.9421445 Z M10.5776782,66.9335039 C8.6512344,66.9335039 6.87160188,66.2920195 5.43968735,65.2116035 C5.59241951,63.5578945 6.53976265,62.0707559 7.97288827,61.2253711 C8.7338578,61.6865391 9.62522156,61.9524316 10.5776782,61.9524316 C11.5293274,61.9524316 12.4201529,61.6869434 13.1807188,61.2263145 C14.6147864,62.0725078 15.5628023,63.5591074 15.7156691,65.2114688 C14.2837545,66.2918848 12.5042566,66.9335039 10.5776782,66.9335039 L10.5776782,66.9335039 Z M7.54900605,56.8956211 C7.54900605,55.2221016 8.90771679,53.8604297 10.5778128,53.8604297 C12.2479087,53.8604297 13.6067541,55.2221016 13.6067541,56.8956211 C13.6067541,58.5692754 12.2479087,59.9308125 10.5778128,59.9308125 C8.90771679,59.9308125 7.54900605,58.5692754 7.54900605,56.8956211 Z M17.4175226,63.5064141 C16.9423708,62.0202188 15.9912598,60.7138008 14.7031961,59.8035938 C15.2830401,58.9803105 15.6251063,57.9775195 15.6251063,56.8956211 C15.6251063,54.1074551 13.3609024,51.8389453 10.5776782,51.8389453 C7.79458861,51.8389453 5.53038469,54.1074551 5.53038469,56.8956211 C5.53038469,57.9768457 5.87191265,58.9790977 6.4510838,59.8019766 C5.16328922,60.7120488 4.21244738,62.0188711 3.73743015,63.5060098 C2.65901994,62.0710254 2.01862136,60.2876719 2.01862136,58.3570195 C2.01862136,53.627959 5.85818694,49.7806699 10.5776782,49.7806699 C15.2971695,49.7806699 19.1367351,53.627959 19.1367351,58.3570195 C19.1367351,60.2879414 18.4963365,62.0714297 17.4175226,63.5064141 Z M27.5143972,33.5251055 L27.5143972,32.0641113 C28.8260099,31.7563066 29.5073165,31.0625332 29.9858324,30.5734688 C30.4600423,30.0887168 30.520866,30.0261855 30.9996511,30.1496309 C31.3869314,30.2497617 31.7162139,30.3380332 32.0012242,30.4145801 C32.976557,30.6761602 33.5138782,30.8203594 34.1124268,30.8203594 C34.7109755,30.8203594 35.2482966,30.6762949 36.2236295,30.4145801 C36.5086398,30.3380332 36.8379223,30.2497617 37.2247989,30.1497656 C37.7033148,30.0264551 37.7646768,30.0884473 38.2390212,30.5734688 C38.7175372,31.0625332 39.3988437,31.7563066 40.7104565,32.0641113 L40.7104565,33.5251055 C40.7104565,35.8872773 38.3063041,38.9308242 35.6638358,39.9113789 C34.5180081,40.3399336 33.7060382,40.3396641 32.558192,39.9104355 C29.9185495,38.9308242 27.5143972,35.8872773 27.5143972,33.5251055 Z M37.4948724,42.9229863 L34.6331964,44.6032441 C34.6197398,44.6110605 34.606687,44.6191465 34.5936341,44.6276367 C34.126018,44.9319375 34.0989703,44.9319375 33.6314887,44.6276367 C33.6184358,44.6191465 33.605383,44.6110605 33.5919264,44.6032441 L30.7297121,42.922582 C31.1702805,42.5903848 31.4613463,42.1387852 31.6611765,41.7284238 C31.7256335,41.7542988 31.7898214,41.7809824 31.8546821,41.8049707 C32.6569633,42.1050938 33.3849642,42.2549531 34.1129651,42.2549531 C34.8402932,42.2549531 35.5676212,42.1052285 36.3677494,41.8059141 C36.4334175,41.7815215 36.4984128,41.7545684 36.5636772,41.7284238 C36.763642,42.1391895 37.0547078,42.5910586 37.4948724,42.9229863 L37.4948724,42.9229863 Z M38.2737392,62.5269375 C38.2737392,64.8261738 36.4070426,66.6967207 34.1125614,66.6967207 C31.8180802,66.6967207 29.9513836,64.8261738 29.9513836,62.5269375 C29.9513836,60.2298574 31.8180802,58.3609277 34.1125614,58.3609277 C36.4070426,58.3609277 38.2737392,60.2298574 38.2737392,62.5269375 Z M43.7290362,48.6711445 C40.9984273,50.574709 37.6835337,51.6924551 34.1125614,51.6924551 C30.5415891,51.6924551 27.2266955,50.5745742 24.4960866,48.6711445 L24.4960866,47.9284512 C24.4960866,45.3932402 25.879692,44.5156465 28.2240972,43.7946504 L32.552002,46.3359258 C33.1124685,46.6973672 33.6125149,46.8780879 34.1125614,46.8780879 C34.6126079,46.8780879 35.1126543,46.6973672 35.6731208,46.3359258 L40.0010256,43.7946504 C42.3454308,44.5156465 43.7290362,45.3932402 43.7290362,47.9284512 L43.7290362,48.6711445 Z M57.6474446,66.9785156 C55.7211354,66.9785156 53.941772,66.337166 52.5098574,65.2568848 C52.6635316,63.6038496 53.6111438,62.11725 55.044404,61.2714609 C55.8049699,61.7319551 56.6957954,61.9974434 57.6474446,61.9974434 C58.5997667,61.9974434 59.491265,61.7315508 60.2522345,61.2703828 C61.6845528,62.115498 62.6316268,63.602502 62.7851663,65.2568848 C61.3531172,66.337166 59.5737538,66.9785156 57.6474446,66.9785156 L57.6474446,66.9785156 Z M54.6185033,56.9407676 C54.6185033,55.2671133 55.9773486,53.9055762 57.6474446,53.9055762 C59.3175406,53.9055762 60.6762513,55.267248 60.6762513,56.9407676 C60.6762513,58.6142871 59.3175406,59.975959 57.6474446,59.975959 C55.9773486,59.975959 54.6185033,58.6144219 54.6185033,56.9407676 Z M64.4870198,63.5516953 C64.011868,62.0641523 63.0612953,60.7570605 61.7739044,59.847123 C62.3530756,59.0242441 62.6947381,58.0219922 62.6947381,56.9407676 C62.6947381,54.1524668 60.4305342,51.8840918 57.6474446,51.8840918 C54.8642204,51.8840918 52.6000165,54.1526016 52.6000165,56.9407676 C52.6000165,58.022666 52.9420827,59.025457 53.5219267,59.8487402 C52.2342667,60.759082 51.2834249,62.0656348 50.8081385,63.5522344 C49.7290555,62.1171152 49.0883878,60.3333574 49.0883878,58.402166 C49.0883878,53.6731055 52.9279533,49.8256816 57.6474446,49.8256816 C62.3669359,49.8256816 66.2065014,53.6731055 66.2065014,58.402166 C66.2065014,60.3330879 65.5658337,62.1167109 64.4870198,63.5516953 L64.4870198,63.5516953 Z" id="Shape" fill="#FFFFFF" fill-rule="nonzero"></path>
                    </g>
                </g>
            </g>
        </g>
    </g>
</svg>