<?xml version="1.0" encoding="UTF-8"?>
<svg width="60px" height="60px" viewBox="0 0 60 60" version="1.1" xmlns="http://www.w3.org/2000/svg" xmlns:xlink="http://www.w3.org/1999/xlink">
    <title>nft</title>
    <g id="Metadventu.re-LP" stroke="none" stroke-width="1" fill="none" fill-rule="evenodd">
        <g id="Metadventure" transform="translate(-570.000000, -1325.000000)" fill-rule="nonzero">
            <g id="Group-6" transform="translate(238.000000, 1008.000000)">
                <g id="Group-22" transform="translate(252.000000, 317.000000)">
                    <g id="nft" transform="translate(80.000000, 0.000000)">
                        <path d="M57,0 C58.654,0 60,1.346 60,3 C60,4.654 58.654,6 57,6 C55.698,6 54.598,5.161 54.184,4 L54.184,4 L41.5,4 L37.493,9.335 C38.044,9.537 38.59,9.754 39.128,10.002 C39.63,10.233 39.849,10.827 39.618,11.328 C39.389,11.829 38.793,12.051 38.292,11.818 C35.671,10.612 32.881,10 30,10 C18.972,10 10,18.972 10,30 C10,41.028 18.972,50 30,50 C32.885,50 35.679,49.394 38.306,48.2 C38.81,47.97 39.401,48.194 39.63,48.696 C39.859,49.199 39.637,49.791 39.134,50.02 C38.597,50.264 38.052,50.479 37.503,50.678 L37.503,50.678 L41.5,56 L54.184,56 C54.598,54.839 55.698,54 57,54 C58.654,54 60,55.346 60,57 C60,58.654 58.654,60 57,60 C55.698,60 54.598,59.161 54.184,58 L54.184,58 L41,58 C40.686,58 40.39,57.852 40.2,57.601 L40.2,57.601 L35.473,51.307 C33.694,51.763 31.865,52 30,52 C28.11,52 26.276,51.76 24.525,51.31 L24.525,51.31 L19.8,57.601 C19.611,57.852 19.314,58 19,58 L19,58 L5.816,58 C5.402,59.161 4.302,60 3,60 C1.346,60 0,58.654 0,57 C0,55.346 1.346,54 3,54 C4.302,54 5.402,54.839 5.816,56 L5.816,56 L18.5,56 L22.495,50.68 C19.92,49.743 17.572,48.334 15.546,46.564 L15.546,46.564 L13.759,48.65 C13.569,48.873 13.292,49 13,49 L13,49 L9.816,49 C9.402,50.161 8.302,51 7,51 C5.346,51 4,49.654 4,48 C4,46.346 5.346,45 7,45 C8.302,45 9.402,45.839 9.816,47 L9.816,47 L12.54,47 L14.099,45.18 C12.382,43.382 10.967,41.296 9.933,39 L9.933,39 L5.816,39 C5.402,40.161 4.302,41 3,41 C1.346,41 0,39.654 0,38 C0,36.346 1.346,35 3,35 C4.302,35 5.402,35.839 5.816,37 L5.816,37 L9.148,37 C8.408,34.799 8,32.447 8,30 C8,27.553 8.408,25.201 9.149,23 L9.149,23 L5.816,23 C5.402,24.161 4.302,25 3,25 C1.346,25 0,23.654 0,22 C0,20.346 1.346,19 3,19 C4.302,19 5.402,19.839 5.816,21 L5.816,21 L9.933,21 C10.966,18.704 12.382,16.618 14.099,14.82 L14.099,14.82 L12.54,13 L9.816,13 C9.402,14.161 8.302,15 7,15 C5.346,15 4,13.654 4,12 C4,10.346 5.346,9 7,9 C8.302,9 9.402,9.839 9.816,11 L9.816,11 L13,11 C13.292,11 13.569,11.127 13.759,11.349 L13.759,11.349 L15.546,13.435 C17.571,11.665 19.92,10.256 22.495,9.319 L22.495,9.319 L18.5,4 L5.816,4 C5.402,5.161 4.302,6 3,6 C1.346,6 0,4.654 0,3 C0,1.346 1.346,0 3,0 C4.302,0 5.402,0.839 5.816,2 L5.816,2 L19,2 C19.314,2 19.611,2.148 19.8,2.399 L19.8,2.399 L24.525,8.69 C26.276,8.24 28.11,8 30,8 C31.864,8 33.691,8.239 35.468,8.7 L35.468,8.7 L40.2,2.399 C40.39,2.148 40.686,2 41,2 L41,2 L54.184,2 C54.598,0.839 55.698,0 57,0 Z M57,56 C56.448,56 56,56.449 56,57 C56,57.551 56.448,58 57,58 C57.552,58 58,57.551 58,57 C58,56.449 57.552,56 57,56 Z M3,56 C2.449,56 2,56.449 2,57 C2,57.551 2.449,58 3,58 C3.551,58 4,57.551 4,57 C4,56.449 3.551,56 3,56 Z M7,47 C6.449,47 6,47.449 6,48 C6,48.551 6.449,49 7,49 C7.551,49 8,48.551 8,48 C8,47.449 7.551,47 7,47 Z M30,12.1348315 C39.8506554,12.1348315 47.8651685,20.1493446 47.8651685,30 C47.8651685,39.8506554 39.8506554,47.8651685 30,47.8651685 C25.9585019,47.8651685 22.1373408,46.5361985 18.9503933,44.0221723 C18.5196442,43.6817416 18.4461985,43.0584457 18.7856367,42.6276966 C19.1250749,42.1969476 19.7493633,42.1244944 20.1801124,42.4629401 C23.0127341,44.6990637 26.4091011,45.8801498 30,45.8801498 C38.7559176,45.8801498 45.8801498,38.7559176 45.8801498,30 C45.8801498,21.2440824 38.7559176,14.1198502 30,14.1198502 C21.2440824,14.1198502 14.1198502,21.2440824 14.1198502,30 C14.1198502,33.5908989 15.3009363,36.9872659 17.5380524,39.8198876 C17.8764981,40.2506367 17.8040449,40.8749251 17.3732959,41.2143633 C16.9435393,41.5538015 16.3192509,41.4813483 15.9788202,41.0496067 C13.4638015,37.8626592 12.1348315,34.0414981 12.1348315,30 C12.1348315,20.1493446 20.1493446,12.1348315 30,12.1348315 Z M35.5056508,37.2492794 C35.9708046,36.9378578 36.5987622,37.0652575 36.9081905,37.5293566 C37.2186301,37.9944667 37.0932408,38.6223655 36.6280871,38.9317648 L36.6280871,38.9317648 L30.5608641,42.9762011 C30.3909819,43.0894453 30.1948083,43.1460674 29.999646,43.1460674 C29.8044836,43.1460674 29.6083101,43.0894453 29.4384278,42.9762011 L29.4384278,42.9762011 L23.3712049,38.9317648 C22.9070623,38.6223655 22.781673,37.9934556 23.0911014,37.5293566 C23.4005298,37.0652575 24.0274761,36.9378578 24.4936411,37.2492794 L24.4936411,37.2492794 L29.999646,40.9196053 Z M3,37 C2.449,37 2,37.449 2,38 C2,38.551 2.449,39 3,39 C3.551,39 4,38.551 4,38 C4,37.449 3.551,37 3,37 Z M32.6966292,24.9438202 C33.2558427,24.9438202 33.7078652,25.3968539 33.7078652,25.9550562 C33.7078652,26.5132584 33.2558427,26.9662921 32.6966292,26.9662921 L32.6966292,26.9662921 L29.6629213,26.9662921 L29.6629213,28.988764 L31.6853933,28.988764 C32.2446067,28.988764 32.6966292,29.4417978 32.6966292,30 C32.6966292,30.5582022 32.2446067,31.011236 31.6853933,31.011236 L31.6853933,31.011236 L29.6629213,31.011236 L29.6629213,34.0449438 C29.6629213,34.6031461 29.2098876,35.0561798 28.6516854,35.0561798 C28.0934831,35.0561798 27.6404494,34.6031461 27.6404494,34.0449438 L27.6404494,34.0449438 L27.6404494,25.9550562 C27.6404494,25.3968539 28.0934831,24.9438202 28.6516854,24.9438202 L28.6516854,24.9438202 Z M25.2808989,24.9438202 C25.8391011,24.9438202 26.2921348,25.3968539 26.2921348,25.9550562 L26.2921348,25.9550562 L26.2921348,34.0449438 C26.2921348,34.5141573 25.9695506,34.9216854 25.5134831,35.0288764 C25.435618,35.0470787 25.3577528,35.0561798 25.2808989,35.0561798 C24.9037079,35.0561798 24.5507865,34.8458427 24.3758427,34.4969663 L24.3758427,34.4969663 L22.247191,30.2386517 L22.247191,34.0449438 C22.247191,34.6031461 21.7941573,35.0561798 21.2359551,35.0561798 C20.6777528,35.0561798 20.2247191,34.6031461 20.2247191,34.0449438 L20.2247191,34.0449438 L20.2247191,25.9550562 C20.2247191,25.4858427 20.5473034,25.0783146 21.0033708,24.9711236 C21.4655056,24.8639326 21.9306742,25.0833708 22.1410112,25.5030337 L22.1410112,25.5030337 L24.2696629,29.7613483 L24.2696629,25.9550562 C24.2696629,25.3968539 24.7226966,24.9438202 25.2808989,24.9438202 Z M40.7865169,24.9438202 C41.3457303,24.9438202 41.7977528,25.3968539 41.7977528,25.9550562 C41.7977528,26.5132584 41.3457303,26.9662921 40.7865169,26.9662921 L40.7865169,26.9662921 L39.7752809,26.9662921 L39.7752809,34.0449438 C39.7752809,34.6031461 39.3232584,35.0561798 38.7640449,35.0561798 C38.2048315,35.0561798 37.752809,34.6031461 37.752809,34.0449438 L37.752809,34.0449438 L37.752809,26.9662921 L36.741573,26.9662921 C36.1823596,26.9662921 35.7303371,26.5132584 35.7303371,25.9550562 C35.7303371,25.3968539 36.1823596,24.9438202 36.741573,24.9438202 L36.741573,24.9438202 Z M42.8089888,28.988764 C43.367479,28.988764 43.8202247,29.4415098 43.8202247,30 C43.8202247,30.5584902 43.367479,31.011236 42.8089888,31.011236 C42.2504986,31.011236 41.7977528,30.5584902 41.7977528,30 C41.7977528,29.4415098 42.2504986,28.988764 42.8089888,28.988764 Z M17.1910112,28.988764 C17.7495014,28.988764 18.2022472,29.4415098 18.2022472,30 C18.2022472,30.5584902 17.7495014,31.011236 17.1910112,31.011236 C16.632521,31.011236 16.1797753,30.5584902 16.1797753,30 C16.1797753,29.4415098 16.632521,28.988764 17.1910112,28.988764 Z M3,21 C2.449,21 2,21.449 2,22 C2,22.551 2.449,23 3,23 C3.551,23 4,22.551 4,22 C4,21.449 3.551,21 3,21 Z M29.4388934,17.0238202 C29.7786821,16.7973034 30.2206098,16.7973034 30.5603985,17.0238202 L30.5603985,17.0238202 L36.6280549,21.068764 C37.0932419,21.3782022 37.2186401,22.007191 36.9081784,22.4713483 C36.7140134,22.7635955 36.3924276,22.9213483 36.0657854,22.9213483 C35.873643,22.9213483 35.6784667,22.8667416 35.5055385,22.7514607 L35.5055385,22.7514607 L29.9991403,19.0806742 L24.4937534,22.7514607 C24.0275552,23.0608989 23.400564,22.9355056 23.0911135,22.4713483 C22.781663,22.0061798 22.9070613,21.3782022 23.371237,21.068764 L23.371237,21.068764 Z M7,11 C6.449,11 6,11.449 6,12 C6,12.551 6.449,13 7,13 C7.551,13 8,12.551 8,12 C8,11.449 7.551,11 7,11 Z M3,2 C2.449,2 2,2.449 2,3 C2,3.551 2.449,4 3,4 C3.551,4 4,3.551 4,3 C4,2.449 3.551,2 3,2 Z M57,2 C56.448,2 56,2.449 56,3 C56,3.551 56.448,4 57,4 C57.552,4 58,3.551 58,3 C58,2.449 57.552,2 57,2 Z" id="Combined-Shape" fill="#FFFFFF"></path>
                        <path d="M56.9911166,24.6869984 C58.6500143,24.6869984 60,23.3474799 60,21.7014446 C60,20.0554093 58.6500143,18.7158909 56.9911166,18.7158909 C55.6852612,18.7158909 54.5820039,19.5508507 54.166778,20.70626 L50.0255515,20.70626 C49.0005252,18.4511717 47.5923678,16.3702408 45.8542361,14.5609952 L47.4228674,12.7447833 L50.1549335,12.7447833 C50.5701594,13.9001926 51.6734166,14.7351525 52.979272,14.7351525 C54.6381698,14.7351525 55.9881555,13.395634 55.9881555,11.7495987 C55.9881555,10.1035634 54.6381698,8.76404494 52.979272,8.76404494 C51.6734166,8.76404494 50.5701594,9.59900482 50.1549335,10.7544141 L46.9615052,10.7544141 C46.6686406,10.7544141 46.3908203,10.8808026 46.1992548,11.1027287 L44.4009454,13.1856501 C43.8603494,12.715923 43.3006971,12.2651043 42.709953,11.8461316 C42.2606264,11.5266774 41.6337757,11.6301766 41.3108222,12.0770144 C40.9888717,12.5238523 41.0921767,13.1458427 41.5435092,13.465297 C46.8200877,17.207191 49.9703886,23.2628892 49.9703886,29.6629213 C49.9703886,36.0858427 46.8200877,42.1445265 41.5455151,45.8695024 C41.0941826,46.1879615 40.9888717,46.8099518 41.3108222,47.2577849 C41.5053966,47.5304655 41.8153116,47.6757624 42.1282355,47.6757624 C42.3288277,47.6757624 42.5324289,47.6160514 42.70895,47.4916533 C43.302703,47.0726806 43.8653642,46.6198716 44.4089691,46.1491493 L46.2002577,48.223114 C46.3908203,48.4450401 46.6686406,48.5714286 46.9615052,48.5714286 L50.1549335,48.5714286 C50.5701594,49.7268379 51.6734166,50.5617978 52.979272,50.5617978 C54.6381698,50.5617978 55.9881555,49.2222793 55.9881555,47.576244 C55.9881555,45.9302087 54.6381698,44.5906902 52.979272,44.5906902 C51.6734166,44.5906902 50.5701594,45.4256501 50.1549335,46.5810594 L47.4228674,46.5810594 L45.8632628,44.7738042 C47.6023974,42.9645586 49.0125608,40.8806421 50.0355811,38.6195827 L54.166778,38.6195827 C54.5820039,39.774992 55.6852612,40.6099518 56.9911166,40.6099518 C58.6500143,40.6099518 60,39.2704334 60,37.6243981 C60,35.9783628 58.6500143,34.6388443 56.9911166,34.6388443 C55.6852612,34.6388443 54.5820039,35.4738042 54.166778,36.6292135 L50.8148819,36.6292135 C51.5681057,34.4089567 51.9763109,32.060321 51.9763109,29.6629213 C51.9763109,27.267512 51.5660998,24.9188764 50.8088641,22.6966292 L54.167781,22.6966292 C54.5820039,23.8520385 55.6852612,24.6869984 56.9911166,24.6869984 Z M52.979272,10.7544141 C53.5329066,10.7544141 53.9822332,11.201252 53.9822332,11.7495987 C53.9822332,12.2979454 53.5329066,12.7447833 52.979272,12.7447833 C52.4256375,12.7447833 51.9763109,12.2979454 51.9763109,11.7495987 C51.9763109,11.201252 52.4256375,10.7544141 52.979272,10.7544141 Z M52.979272,46.5810594 C53.5329066,46.5810594 53.9822332,47.0278973 53.9822332,47.576244 C53.9822332,48.1245907 53.5329066,48.5714286 52.979272,48.5714286 C52.4256375,48.5714286 51.9763109,48.1245907 51.9763109,47.576244 C51.9763109,47.0278973 52.4256375,46.5810594 52.979272,46.5810594 Z M56.9911166,36.6292135 C57.5447511,36.6292135 57.9940777,37.0760514 57.9940777,37.6243981 C57.9940777,38.1727448 57.5447511,38.6195827 56.9911166,38.6195827 C56.437482,38.6195827 55.9881555,38.1727448 55.9881555,37.6243981 C55.9881555,37.0760514 56.437482,36.6292135 56.9911166,36.6292135 Z M56.9911166,20.70626 C57.5447511,20.70626 57.9940777,21.1530979 57.9940777,21.7014446 C57.9940777,22.2497913 57.5447511,22.6966292 56.9911166,22.6966292 C56.437482,22.6966292 55.9881555,22.2497913 55.9881555,21.7014446 C55.9881555,21.1530979 56.437482,20.70626 56.9911166,20.70626 Z" id="Shape" fill="#1B1B29"></path>
                    </g>
                </g>
            </g>
        </g>
    </g>
</svg>