<?xml version="1.0" encoding="UTF-8"?>
<svg width="62px" height="62px" viewBox="0 0 62 62" version="1.1" xmlns="http://www.w3.org/2000/svg" xmlns:xlink="http://www.w3.org/1999/xlink">
    <title>open-source@3x</title>
    <g id="Metadventu.re-LP" stroke="none" stroke-width="1" fill="none" fill-rule="evenodd">
        <g id="Metadventure" transform="translate(-337.000000, -1061.000000)">
            <g id="Group-6" transform="translate(238.000000, 1008.000000)">
                <g id="Group-8" transform="translate(20.000000, 53.000000)">
                    <g id="open-source" transform="translate(79.000000, 0.000000)">
                        <path d="M59.9333333,56.8333333 C59.9333333,58.5454161 58.5454161,59.9333333 56.8333333,59.9333333 L42.3666667,59.9333333 C40.6545839,59.9333333 39.2666667,58.5454161 39.2666667,56.8333333 L39.2666667,42.3666667 C39.2666667,40.6545839 40.6545839,39.2666667 42.3666667,39.2666667 L56.8333333,39.2666667 C58.5454161,39.2666667 59.9333333,40.6545839 59.9333333,42.3666667 L59.9333333,56.8333333 Z" id="Path" fill="#1B1B29"></path>
                        <path d="M43.4,0 C45.682777,0 47.5333333,1.85055637 47.5333333,4.13333333 L47.5333333,4.13333333 L47.5333333,20.9384333 C50.0086075,20.2860136 52.6465211,20.8218216 54.6711081,22.3882446 C56.6956951,23.9546676 57.8766805,26.3735417 57.8666667,28.9333333 L57.8666667,28.9333333 L57.8666667,32.0333333 C57.8666667,33.7454161 56.4787494,35.1333333 54.7666667,35.1333333 C53.0545839,35.1333333 51.6666667,33.7454161 51.6666667,32.0333333 L51.6666667,32.0333333 L51.6666667,28.9333333 C51.6666667,27.7919449 50.7413885,26.8666667 49.6,26.8666667 C48.4586115,26.8666667 47.5333333,27.7919449 47.5333333,28.9333333 L47.5333333,28.9333333 L47.5333333,37.2 L56.8333333,37.2 C59.6853883,37.2034163 61.9965837,39.5146117 62,42.3666667 L62,42.3666667 L62,56.8333333 C61.9965837,59.6853883 59.6853883,61.9965837 56.8333333,62 L56.8333333,62 L42.3666667,62 C39.5146117,61.9965837 37.2034163,59.6853883 37.2,56.8333333 L37.2,56.8333333 L37.2,49.6 L4.13333333,49.6 C1.85055637,49.6 0,47.7494436 0,45.4666667 L0,45.4666667 L0,4.13333333 C0,1.85055637 1.85055637,0 4.13333333,0 L4.13333333,0 Z M56.8333333,39.2666667 L42.3666667,39.2666667 C40.6545839,39.2666667 39.2666667,40.6545839 39.2666667,42.3666667 L39.2666667,42.3666667 L39.2666667,56.8333333 C39.2666667,58.5454161 40.6545839,59.9333333 42.3666667,59.9333333 L42.3666667,59.9333333 L56.8333333,59.9333333 C58.5454161,59.9333333 59.9333333,58.5454161 59.9333333,56.8333333 L59.9333333,56.8333333 L59.9333333,42.3666667 C59.9333333,40.6545839 58.5454161,39.2666667 56.8333333,39.2666667 L56.8333333,39.2666667 Z M48.1745485,43.688362 C49.5682916,43.21652 51.1144501,43.4998353 52.236766,44.4327153 C53.9620351,45.8657175 54.1847235,48.3904594 52.7312523,50.0938244 L52.7312523,50.0938244 L52.771767,50.0584172 L53.4189623,53.1803226 C53.5437933,53.7758534 53.3870829,54.3944836 52.9921628,54.8651568 C52.5972427,55.3358299 52.0059578,55.6086744 51.3818034,55.6082469 L51.3818034,55.6082469 L47.6897776,55.6082469 C47.0676455,55.6068516 46.4788948,55.3340398 46.0853636,54.8648028 C45.6918325,54.3955658 45.5349398,53.7792902 45.6578129,53.1853808 L45.6578129,53.1853808 L46.3081247,50.0493125 C45.529615,49.1206953 45.21932,47.90125 45.4625116,46.7260917 C45.7485517,45.3164226 46.7808054,44.1602039 48.1745485,43.688362 Z M49.5357905,45.4918544 C49.4154319,45.4918544 49.2952569,45.5010438 49.176353,45.5192112 C48.3370115,45.6667086 47.6727105,46.2940239 47.4955151,47.1064664 C47.3707947,47.7028263 47.5283654,48.3221783 47.9245547,48.7928619 C48.3153073,49.2542088 48.4683325,49.8640657 48.3400894,50.4489083 L48.3400894,50.4489083 L47.6897776,53.5849765 L51.3818034,53.5849765 L50.7398023,50.4630711 C50.6007612,49.8764145 50.7504533,49.2623809 51.1407933,48.7969084 C51.4476303,48.436751 51.6149112,47.9831353 51.6134733,47.5151669 C51.6147205,46.922328 51.3489129,46.3587802 50.8862783,45.9734353 C50.5103778,45.6597448 50.0308212,45.4887512 49.5357905,45.4918544 Z M43.4,2.06666667 L4.13333333,2.06666667 C2.99194485,2.06666667 2.06666667,2.99194485 2.06666667,4.13333333 L2.06666667,4.13333333 L2.06666667,45.4666667 C2.06666667,46.6080551 2.99194485,47.5333333 4.13333333,47.5333333 L4.13333333,47.5333333 L37.2,47.5333333 L37.2,45.4666667 L6.2,45.4666667 C5.05861152,45.4666667 4.13333333,44.5413885 4.13333333,43.4 L4.13333333,43.4 L4.13333333,10.3333333 C4.13333333,9.19194485 5.05861152,8.26666667 6.2,8.26666667 L6.2,8.26666667 L41.3333333,8.26666667 C42.4747218,8.26666667 43.4,9.19194485 43.4,10.3333333 L43.4,10.3333333 L43.4,23.4835333 C43.9929621,22.8097213 44.6908318,22.2360724 45.4666667,21.7847333 L45.4666667,21.7847333 L45.4666667,4.13333333 C45.4666667,2.99194485 44.5413885,2.06666667 43.4,2.06666667 L43.4,2.06666667 Z M41.3333333,10.3333333 L6.2,10.3333333 L6.2,43.4 L37.2,43.4 L37.2,42.3666667 C37.2030982,39.9123958 38.9293693,37.7977137 41.3333333,37.3033333 L41.3333333,37.3033333 L41.3333333,10.3333333 Z M49.6,22.7333333 C46.1758346,22.7333333 43.4,25.5091679 43.4,28.9333333 L43.4,28.9333333 L43.4,37.2 L45.4666667,37.2 L45.4666667,28.9333333 C45.4666667,26.6505564 47.317223,24.8 49.6,24.8 C51.882777,24.8 53.7333333,26.6505564 53.7333333,28.9333333 L53.7333333,28.9333333 L53.7333333,32.0333333 C53.7333333,32.6040276 54.1959724,33.0666667 54.7666667,33.0666667 C55.3373609,33.0666667 55.8,32.6040276 55.8,32.0333333 L55.8,32.0333333 L55.8,28.9333333 C55.8,25.5091679 53.0241654,22.7333333 49.6,22.7333333 Z M16.1486322,20.096844 C16.5679405,19.7010288 17.2247784,19.7240872 17.6159938,20.1483559 C18.008086,20.5716886 17.987169,21.2365712 17.5692626,21.6337901 L17.5692626,21.6337901 L11.664508,27.1981235 L17.5651087,32.7119963 C17.9689117,33.1111031 17.9839434,33.7636122 17.5989577,34.1813405 C17.213972,34.5990688 16.5699087,34.6290896 16.1486322,34.2489423 L16.1486322,34.2489423 L10.2449161,28.6846089 C9.82611124,28.2963014 9.58762887,27.7478083 9.58762887,27.1728932 C9.58762887,26.5979781 9.82611124,26.0494849 10.2449161,25.6611774 L10.2449161,25.6611774 Z M30.3584358,20.1481778 C30.7426957,19.7309228 31.3855448,19.7009361 31.8060271,20.0806525 L31.8060271,20.0806525 L37.6944673,25.6386807 C38.1124827,26.0265482 38.3505155,26.5744198 38.3505155,27.1486834 C38.3505155,27.722947 38.1124827,28.2708186 37.6944673,28.6586861 L37.6944673,28.6586861 L31.801881,34.2167143 C31.5329033,34.482764 31.1428205,34.5804218 30.7824795,34.4719229 C30.4221385,34.363424 30.1480286,34.0657773 30.0661495,33.6940843 C29.9842704,33.3223914 30.107458,32.9349209 30.3880749,32.6815098 L30.3880749,32.6815098 L36.2816978,27.1234817 L30.392221,21.615857 C29.9891792,21.2172025 29.9741758,20.5654327 30.3584358,20.1481778 Z M26.7555496,19.868465 C27.0169545,19.7802366 27.3023256,19.8006721 27.5488209,19.9252713 C27.795419,20.0496626 27.9830046,20.2680494 28.0702694,20.5323407 C28.1575343,20.796632 28.137322,21.085154 28.0140836,21.3343711 L28.0140836,21.3343711 L21.7828876,33.9343701 C21.6170363,34.2701104 21.2866242,34.4908897 20.9161143,34.5135425 C20.5456045,34.5361952 20.1912862,34.35728 19.9866276,34.0441925 C19.7819691,33.731105 19.7580628,33.3314105 19.9239141,32.9956702 L19.9239141,32.9956702 L26.1551101,20.3956712 C26.2781429,20.1463503 26.4941447,19.9566934 26.7555496,19.868465 Z M7.24398625,4.4742268 C7.83233083,4.4742268 8.30927835,4.90347957 8.30927835,5.43298969 C8.30927835,5.96249981 7.83233083,6.39175258 7.24398625,6.39175258 L7.24398625,6.39175258 L6.17869416,6.39175258 C5.59034958,6.39175258 5.11340206,5.96249981 5.11340206,5.43298969 C5.11340206,4.90347957 5.59034958,4.4742268 6.17869416,4.4742268 L6.17869416,4.4742268 Z M12.3573883,4.4742268 C12.9457329,4.4742268 13.4226804,4.90347957 13.4226804,5.43298969 C13.4226804,5.96249981 12.9457329,6.39175258 12.3573883,6.39175258 L12.3573883,6.39175258 L11.2920962,6.39175258 C10.7037516,6.39175258 10.2268041,5.96249981 10.2268041,5.43298969 C10.2268041,4.90347957 10.7037516,4.4742268 11.2920962,4.4742268 L11.2920962,4.4742268 Z M17.4707904,4.4742268 C18.059135,4.4742268 18.5360825,4.90347957 18.5360825,5.43298969 C18.5360825,5.96249981 18.059135,6.39175258 17.4707904,6.39175258 L17.4707904,6.39175258 L16.4054983,6.39175258 C15.8171537,6.39175258 15.3402062,5.96249981 15.3402062,5.43298969 C15.3402062,4.90347957 15.8171537,4.4742268 16.4054983,4.4742268 L16.4054983,4.4742268 Z M41.1469072,4.4742268 C41.7205432,4.4742268 42.185567,4.90347957 42.185567,5.43298969 C42.185567,5.96249981 41.7205432,6.39175258 41.1469072,6.39175258 L41.1469072,6.39175258 L34.9149485,6.39175258 C34.3413125,6.39175258 33.8762887,5.96249981 33.8762887,5.43298969 C33.8762887,4.90347957 34.3413125,4.4742268 34.9149485,4.4742268 L34.9149485,4.4742268 Z" id="Combined-Shape" fill="#FFFFFF" fill-rule="nonzero"></path>
                    </g>
                </g>
            </g>
        </g>
    </g>
</svg>