<?xml version="1.0" encoding="UTF-8"?>
<svg width="27px" height="22px" viewBox="0 0 27 22" version="1.1" xmlns="http://www.w3.org/2000/svg" xmlns:xlink="http://www.w3.org/1999/xlink">
    <title>013-twitter-1@3x</title>
    <g id="Metadventu.re-LP" stroke="none" stroke-width="1" fill="none" fill-rule="evenodd">
        <g id="Metadventure" transform="translate(-1046.000000, -63.000000)" fill="#FFFFFF" fill-rule="nonzero">
            <g id="Group-7" transform="translate(990.000000, 62.000000)">
                <g id="013-twitter-1" transform="translate(56.000000, 1.000000)">
                    <path d="M27,2.60446154 C25.9959375,3.04615385 24.9260625,3.33892308 23.810625,3.48107692 C24.958125,2.794 25.8339375,1.71430769 26.2456875,0.412923077 C25.1758125,1.05261538 23.9945625,1.50446154 22.7356875,1.75661538 C21.7198125,0.671846154 20.2719375,0 18.6924375,0 C15.6279375,0 13.1608125,2.49446154 13.1608125,5.55246154 C13.1608125,5.99246154 13.1979375,6.41553846 13.2890625,6.81830769 C8.68725,6.59323077 4.6153125,4.38138462 1.879875,1.012 C1.4023125,1.84292308 1.1221875,2.794 1.1221875,3.81784615 C1.1221875,5.74030769 2.109375,7.44446154 3.580875,8.43107692 C2.6915625,8.41415385 1.819125,8.15523077 1.08,7.74738462 C1.08,7.76430769 1.08,7.78630769 1.08,7.80830769 C1.08,10.5058462 2.9986875,12.7464615 5.51475,13.2626154 C5.0641875,13.3861538 4.573125,13.4453846 4.0635,13.4453846 C3.709125,13.4453846 3.351375,13.4250769 3.0155625,13.3506154 C3.73275,15.5489231 5.767875,17.1650769 8.18775,17.2175385 C6.3045,18.6949231 3.9133125,19.5850769 1.3246875,19.5850769 C0.87075,19.5850769 0.435375,19.5647692 0,19.5089231 C2.4519375,21.0946154 5.3578125,22 8.4915,22 C18.67725,22 24.246,13.5384615 24.246,6.204 C24.246,5.95861538 24.2375625,5.72169231 24.22575,5.48646154 C25.3243125,4.70461538 26.247375,3.72815385 27,2.60446154 Z" id="Path"></path>
                </g>
            </g>
        </g>
    </g>
</svg>