<?xml version="1.0" encoding="UTF-8"?>
<svg width="22px" height="22px" viewBox="0 0 22 22" version="1.1" xmlns="http://www.w3.org/2000/svg" xmlns:xlink="http://www.w3.org/1999/xlink">
    <title>045-facebook</title>
    <g id="Metadventu.re-LP" stroke="none" stroke-width="1" fill="none" fill-rule="evenodd">
        <g id="Metadventure" transform="translate(-990.000000, -62.000000)" fill="#FFFFFF" fill-rule="nonzero">
            <g id="045-facebook" transform="translate(990.000000, 62.000000)">
                <path d="M19.25,0 L2.75,0 C1.233375,0 0,1.233375 0,2.75 L0,19.25 C0,20.766625 1.233375,22 2.75,22 L11,22 L11,14.4375 L8.25,14.4375 L8.25,11 L11,11 L11,8.25 C11,5.971625 12.846625,4.125 15.125,4.125 L17.875,4.125 L17.875,7.5625 L16.5,7.5625 C15.741,7.5625 15.125,7.491 15.125,8.25 L15.125,11 L18.5625,11 L17.1875,14.4375 L15.125,14.4375 L15.125,22 L19.25,22 C20.766625,22 22,20.766625 22,19.25 L22,2.75 C22,1.233375 20.766625,0 19.25,0 Z" id="Path"></path>
            </g>
        </g>
    </g>
</svg>