<?xml version="1.0" encoding="UTF-8"?>
<svg width="32px" height="24px" viewBox="0 0 32 24" version="1.1" xmlns="http://www.w3.org/2000/svg" xmlns:xlink="http://www.w3.org/1999/xlink">
    <title>discord</title>
    <g id="Metadventu.re-LP" stroke="none" stroke-width="1" fill="none" fill-rule="evenodd">
        <g id="Metadventure" transform="translate(-938.000000, -62.000000)" fill="#FFFFFF" fill-rule="nonzero">
            <g id="Group-27" transform="translate(363.000000, 62.000000)">
                <g id="discord" transform="translate(575.000000, 0.000000)">
                    <path d="M27.0894544,1.98949204 C25.0498894,1.0686824 22.8627618,0.390236396 20.5759466,0.00163049687 C20.5343215,-0.00587225986 20.4926965,0.0128846319 20.471259,0.0503369176 C20.1899461,0.542628455 19.8783833,1.18479063 19.6601955,1.68956627 C17.2006301,1.32722001 14.7536272,1.32722001 12.3444993,1.68956627 C12.126249,1.173598 11.8033736,0.542628455 11.5208108,0.0503369176 C11.4993733,0.0141145921 11.4577482,-0.00464229974 11.4161232,0.00163049687 C9.13062045,0.388944938 6.94349285,1.06739094 4.90261542,1.98949204 C4.88492789,1.9969948 4.86980288,2.00947889 4.85974036,2.02571437 C0.711235421,8.12416412 -0.425265933,14.0727432 0.132234731,19.9475248 C0.134734734,19.9762443 0.151172254,20.0037339 0.173859781,20.0211994 C2.91092554,21.9990367 5.5623037,23.1997238 8.1643693,23.995631 C8.20599435,24.0081151 8.2501194,23.9931711 8.27661944,23.9594087 C8.89212017,23.132322 9.44080832,22.2602188 9.91124638,21.343099 C9.93899642,21.2894112 9.91249639,21.2256993 9.85574632,21.204421 C8.98543278,20.8795885 8.15674429,20.4834799 7.35955584,20.033745 C7.29649327,19.9975226 7.29143076,19.908781 7.34949333,19.8662859 C7.51724353,19.7426134 7.68505623,19.6138981 7.84524392,19.4839528 C7.87424396,19.4602146 7.914619,19.4552332 7.94868155,19.4701772 C13.1856878,21.8229064 18.855382,21.8229064 24.0305757,19.4701772 C24.0646382,19.4539418 24.1050133,19.4589846 24.1352633,19.4826613 C24.2955135,19.6126066 24.4632637,19.7425519 24.6322639,19.8662244 C24.690264,19.9087195 24.6864515,19.9974611 24.6234514,20.0336835 C23.826263,20.4922126 22.9975745,20.879527 22.1260109,21.2031295 C22.0692609,21.2243464 22.0440108,21.2893497 22.0718234,21.3430375 C22.5523864,22.2588658 23.1010746,23.130969 23.7052003,23.9581172 C23.7304504,23.9931096 23.7758254,24.0081151 23.8174505,23.9955695 C26.4321411,23.1997238 29.0835192,21.9989752 31.820585,20.0211379 C31.844585,20.0036724 31.85971,19.9774128 31.86221,19.9486932 C32.5294608,13.1567919 30.7446462,7.25698074 27.1309544,2.02688283 C27.1222044,2.00947889 27.1070794,1.9969948 27.0894544,1.98949204 Z M10.999842,16 C9.35519008,16 8,14.6535927 8,13 C8,11.3464073 9.32885166,10 10.999842,10 C12.6838712,10 14.0259573,11.3582668 13.9996189,13 C13.9996189,14.6535927 12.670702,16 10.999842,16 Z M20.9997778,16 C19.3551905,16 18,14.6535927 18,13 C18,11.3464073 19.3288521,10 20.9997778,10 C22.6838727,10 24.025894,11.3582668 23.9996207,13 C23.9996207,14.6535927 22.6839379,16 20.9997778,16 Z" id="Shape"></path>
                </g>
            </g>
        </g>
    </g>
</svg>