<?xml version="1.0" encoding="UTF-8"?>
<svg width="62px" height="68px" viewBox="0 0 62 68" version="1.1" xmlns="http://www.w3.org/2000/svg" xmlns:xlink="http://www.w3.org/1999/xlink">
    <title>Fichier 1</title>
    <defs>
        <radialGradient cx="50%" cy="50%" fx="50%" fy="50%" r="54.8387097%" gradientTransform="translate(0.500000,0.500000),scale(1.000000,0.911765),rotate(90.000000),translate(-0.500000,-0.500000)" id="radialGradient-1">
            <stop stop-color="#FFFFFF" offset="0%"></stop>
            <stop stop-color="#FFFFFF" stop-opacity="0" offset="100%"></stop>
        </radialGradient>
        <path d="M26.138388,29.516268 C27.9189206,28.0362868 30.5912183,28.2872821 32.1079684,30.0784084 C33.6247184,31.8695346 33.410395,34.5205797 31.6298624,36.0013035 L31.5736587,36.0466015 L35.0710265,39.3927105 C35.1850848,39.5000974 35.3575262,39.5186447 35.4921794,39.4380084 C37.0523936,38.5238806 39.1109472,38.85062 40.3316911,40.2927291 C41.6888227,41.8952376 41.4969808,44.2678116 39.9045431,45.591849 C38.3121055,46.9158863 35.9200768,46.6916242 34.5629452,45.0891158 C33.4727428,43.812964 33.3575588,41.9788746 34.2796786,40.5786262 C34.3735914,40.4417983 34.355295,40.2579922 34.2362145,40.1419834 L30.7365985,36.7929041 C30.6417314,36.7021694 30.502798,36.6733069 30.3791431,36.7186451 C29.9522003,36.871819 29.5029384,36.9550882 29.0489893,36.9651849 C28.8850895,36.9679874 28.7453214,37.0836111 28.713266,37.2429134 L26.8810259,46.5787506 C26.8499817,46.7372611 26.9349307,46.8957157 27.084858,46.9589565 C27.762045,47.2491937 28.3774493,47.6642281 28.8983634,48.1820017 C31.1517564,50.4149688 31.1787342,54.0083602 28.958314,56.2079107 C26.7378939,58.4074613 23.1131311,58.3814707 20.8589888,56.1485036 C20.7255987,56.0163226 20.5997024,55.8789435 20.4842975,55.7378515 C20.3812109,55.6131234 20.2043909,55.5763494 20.0593977,55.6494833 L17.9611269,56.7076736 C17.8762225,56.7510484 17.8134579,56.8275914 17.787987,56.9188218 C17.7625162,57.0100522 17.7766542,57.1076783 17.8269875,57.1881291 C18.9150907,58.9592054 19.005766,60.9099885 17.9019257,62.0030805 C17.826159,62.0782246 17.7455563,62.1484228 17.6606246,62.2132333 C17.5697531,62.2846715 17.5206087,62.3961597 17.5294707,62.5107673 C17.5383326,62.6253748 17.6040441,62.7281422 17.7048381,62.7850274 L20.9361751,64.6340756 C21.0433579,64.6961123 21.1759565,64.6961123 21.2831392,64.6340756 C21.80396,64.331099 22.6417696,64.2056014 23.6002297,64.2976825 L23.6886568,64.3065936 C23.7785827,64.3162472 23.8685086,64.3281287 23.9599332,64.3414953 L24.0513579,64.3556045 L24.0970702,64.3630304 L24.1892443,64.3793674 L24.235706,64.3875359 L24.3286294,64.4061006 C24.4365405,64.4276357 24.5459503,64.4521412 24.6561095,64.4803596 C26.5835211,64.9563595 27.9601366,66.082868 27.7285775,66.9962533 C27.4970183,67.9096386 25.7502079,68.2645965 23.8220469,67.7885965 L23.7763345,67.7767151 L23.7763345,67.7767151 L23.6849099,67.7529522 L23.6849099,67.7529522 L23.5942346,67.7284467 C22.9628323,67.5582977 22.3617367,67.2925359 21.8122032,66.9405591 L21.7507538,66.8989741 C21.3138639,66.6019382 20.994627,66.2662877 20.8357579,65.9336075 C20.8059392,65.8714703 20.7578792,65.8197047 20.6978715,65.7850896 L15.474676,62.7969088 C15.4337722,62.7740004 15.3886883,62.7593611 15.3420353,62.7538386 C14.1227901,62.6142317 12.7761499,61.9555547 11.653575,60.8431554 C9.60476347,58.8129153 9.08019577,56.0408281 10.4822903,54.6544132 C11.8843848,53.2679983 14.6788319,53.7848407 16.7291422,55.8150808 L16.7291422,55.8150808 C16.8354918,55.9199486 16.9977266,55.9453954 17.1315606,55.8782009 L19.4306659,54.7175333 C19.5922788,54.6350513 19.6624989,54.4431299 19.5917831,54.2771776 C18.7344896,52.2157487 19.1294141,49.7755991 20.7982888,48.1196242 C22.0482219,46.8835193 23.8098663,46.2982383 25.5591153,46.5379082 C25.7420662,46.5639087 25.9135747,46.4435383 25.9495436,46.2638926 L27.7480614,37.1092473 C27.781573,36.9438088 27.6878853,36.7789731 27.527743,36.7216155 C26.8011063,36.4666731 26.156922,36.0229861 25.6625301,35.4369354 C24.1442813,33.6487795 24.3548578,30.9969918 26.138388,29.516268 Z M46.58229,47.5441172 C47.6164377,46.1331968 50.1238713,46.1933466 52.1831742,47.6755555 C53.981692,48.9691467 54.8419831,50.9191872 54.3451425,52.3323353 C54.2763917,52.5297114 54.3399356,52.748614 54.5040116,52.8796239 L56.5783021,54.5437673 C56.7510787,54.6824535 56.9956694,54.6909366 57.1778081,54.5645598 C58.7777396,53.4291402 60.6691808,53.3125537 61.5482064,54.350694 C62.4924283,55.4645785 61.9086593,57.4918483 60.244281,58.8760354 C58.5956396,60.2461133 56.5071108,60.4733458 55.5494001,59.3958482 L55.5231717,59.3661446 L50.119375,62.2132333 C49.9400819,62.307318 49.8361049,62.4995904 49.8563418,62.6996296 C50.0624219,64.7484344 48.4939645,66.8388243 46.0524766,67.6140879 L45.9692951,67.6400786 C43.4835936,68.3930645 40.9619217,67.5331457 39.962995,65.7048899 C39.8692629,65.5351476 39.6841257,65.4352901 39.4893853,65.4494391 L37.5222564,65.585333 C37.3423438,65.5992158 37.1836804,65.7074321 37.1063492,65.8690022 L37.1063492,65.8690022 C36.2115865,67.6876043 33.4343753,68.1710302 30.905959,66.947985 C28.3775426,65.7249398 27.0526345,63.2617699 27.9518934,61.4431679 C28.8511523,59.6245658 31.6238673,59.1411399 34.1522836,60.3641851 C35.8953472,61.2070243 37.0666319,62.6394798 37.333412,64.0437168 C37.3812046,64.289437 37.6059725,64.4615759 37.8579797,64.4454578 L39.0614879,64.3615452 C39.3183408,64.3444437 39.5200779,64.1368218 39.5276038,63.8818323 C39.5620754,62.5355172 40.3346887,61.2159354 41.5884055,60.3062631 C41.7778463,60.1679826 41.8443159,59.917502 41.7480239,59.7047655 L40.2807331,56.437371 C40.1945857,56.2469097 39.9977772,56.1298357 39.7876395,56.144048 C38.8377811,56.2023754 37.903061,55.886955 37.1865331,55.2663071 C35.6877682,53.9749436 35.5124127,51.7419765 36.7968542,50.2775897 C38.0812957,48.8132029 40.3369368,48.6743386 41.836451,49.9664447 C43.3359653,51.2585507 43.509822,53.4915178 42.2261299,54.955162 C42.028171,55.1812391 41.8014664,55.3809276 41.5516857,55.5492337 C41.3538324,55.6850455 41.2819783,55.9414379 41.3808265,56.1588998 L42.7297149,59.1559917 C42.8335233,59.3880875 43.0974171,59.5050582 43.341211,59.4270369 L43.4296381,59.3995611 C45.8404013,58.6695955 48.2848868,59.4559979 49.341516,61.17138 C49.4797862,61.3957224 49.7704888,61.4744934 50.0047195,61.3510867 L54.8299929,58.8084597 C55.0099726,58.7111873 55.1116184,58.5147452 55.0862817,58.3131524 C54.9956065,57.4963038 55.3283323,56.5309372 56.0102703,55.6710184 C56.177756,55.4576976 56.141741,55.1507101 55.929337,54.9811526 L54.0641241,53.4840919 C53.8912126,53.3464233 53.647762,53.3370751 53.4646182,53.4610716 C52.245373,54.2734647 50.1808244,54.0380638 48.4385102,52.7838298 C46.3799567,51.2993931 45.5488916,48.9542949 46.58229,47.5441172 Z M3.78805707,21.9418535 C4.5629185,19.7140845 5.98075005,18.1746961 6.95569659,18.5066337 C7.87294068,18.8200065 8.07002826,20.6801936 7.44279517,22.7579595 C7.42297663,22.8259606 7.45433869,22.8983719 7.51773341,22.9309829 L11.9390897,24.9731045 C12.005327,25.0019176 12.0828806,24.9797371 12.1234378,24.9203806 C12.2483807,24.7361695 12.3882262,24.5623262 12.5415932,24.4005678 C14.126537,22.7163745 16.813073,22.6428581 18.5366526,24.2371981 C20.2602322,25.8315381 20.3756371,28.4892665 18.7906933,30.1734598 C18.1099265,30.8981825 17.188276,31.3553579 16.1948325,31.4611103 C16.1275705,31.4691498 16.0741149,31.5209032 16.06444,31.5873506 L15.7579426,34.0609167 C15.7504692,34.1314909 15.794422,34.1974447 15.8628561,34.2183457 C16.4902466,34.4029401 17.072426,34.7138909 17.5729468,35.131731 C19.5708004,36.7921615 19.8510694,39.7194499 18.2001799,41.66652 C16.8512915,43.2556619 14.6406134,43.7056712 12.7866413,42.9185262 C12.729042,42.8944968 12.6624418,42.9084063 12.619529,42.9534279 L9.06745627,46.8572217 C9.02264438,46.9085388 9.01863431,46.9834281 9.0577143,47.0391562 C10.6921174,49.2951436 10.9251753,51.8994055 9.55755237,52.9204663 C8.15695662,53.9660326 5.60830698,52.9546254 3.86224593,50.6622512 C2.29228974,48.5978519 1.91385162,46.1978021 2.87231174,44.9769847 C2.89860765,44.9435622 2.90924203,44.9005996 2.90153766,44.858913 L2.04948984,40.4895154 C2.04269655,40.4552467 2.02350995,40.4246152 1.9955343,40.403375 C1.13449389,39.728361 0.364128759,37.9461458 0.0958498498,35.7770414 C-0.257109273,32.9277249 0.395602821,30.5046548 1.54665423,30.3635628 C2.69770564,30.2224708 3.92219652,32.419051 4.27515565,35.272823 C4.62436786,38.0946637 3.99188909,40.4969413 2.85957224,40.6811035 L2.84983027,40.6811035 L3.54900407,44.2455339 C3.5591559,44.2867183 3.58658536,44.3216403 3.62438252,44.3415026 C3.66217968,44.3613648 3.70674111,44.3642737 3.74684103,44.3494965 C4.96458748,43.8972594 6.70540286,44.5485105 8.15096156,45.9779956 C8.17972986,46.0057621 8.21853985,46.0209265 8.25869016,46.0200889 C8.29884048,46.0192512 8.33697202,46.0024817 8.36453555,45.97354 L11.6108602,42.4016838 C11.6636605,42.3395668 11.6563163,42.2469418 11.5943738,42.1937587 L11.5943738,42.1937587 C9.59726964,40.5325856 9.31625123,37.6060398 10.9678901,35.6589697 C11.8437396,34.6240289 13.1366816,34.0259622 14.4997295,34.0252724 C14.5747101,34.0260571 14.6387373,33.97181 14.649606,33.8982896 L14.9403663,31.5502211 C14.9479002,31.4755692 14.898067,31.4070724 14.8242121,31.3905643 C13.6825382,31.142871 12.6911593,30.4467081 12.0769679,29.4614034 C11.4627765,28.4760986 11.27835,27.2859985 11.5658973,26.1634757 C11.5835184,26.0954878 11.5506987,26.0245585 11.4872121,25.9934226 L7.14304219,23.9854602 C7.06851645,23.953956 6.98221664,23.9868473 6.94820276,24.0597192 C6.1448648,25.7773291 4.9848208,26.8659655 4.15000878,26.584524 C3.17506224,26.2488735 3.01319564,24.1718502 3.78805707,21.9418535 Z M30.4810591,1.98624151 C30.5447566,0.775077778 32.4729176,-0.109346507 34.7877599,0.0109530179 C37.1026022,0.131252543 38.9265991,1.21023532 38.8621522,2.42139906 C38.8621522,2.44070639 38.8621522,2.46001372 38.8584053,2.47857846 L44.634645,3.48998558 C44.6934163,3.49940874 44.7522436,3.47346786 44.7845215,3.4238951 C44.8461862,3.33283287 44.9143017,3.24622693 44.9883535,3.16473131 C46.1409037,1.89638817 48.4962127,2.13624463 50.2490182,3.70013845 C51.1407833,4.49619457 51.7050682,5.48235364 51.8924138,6.42395732 C51.9091895,6.50038546 51.9561481,6.56697572 52.0228064,6.60886215 L56.3534874,9.38020676 C56.3935302,9.40522917 56.4389844,9.42049769 56.4861281,9.42476214 C57.385387,9.50867477 58.5446816,10.136163 59.5458566,11.1639071 C61.0558621,12.7136917 61.6366335,14.5857603 60.8422882,15.3461721 C60.0479428,16.1065839 58.1797324,15.465729 56.6704762,13.916687 C55.1717113,12.3824968 54.5916893,10.5319633 55.3508137,9.7581849 L55.3568088,9.75224418 L52.1172286,7.68041903 C52.0761516,7.65525869 52.0253571,7.65125259 51.9807811,7.66965758 C51.936205,7.68806258 51.9033091,7.7266236 51.8924138,7.77324274 C51.8062719,8.14815062 51.6296086,8.49674547 51.3775881,8.78910539 L51.3438659,8.82697747 C50.87775,9.34010692 50.2145466,9.60669661 49.4704098,9.63862796 C49.3911665,9.64334784 49.3293829,9.70847933 49.3295259,9.7871459 L49.3295259,14.0548087 C49.3295259,14.1368329 49.3966279,14.2033266 49.4794024,14.2033266 C51.080067,14.2629059 52.5081132,15.2169556 53.1641158,16.6650113 C54.1113352,18.7732234 53.1281455,21.254958 50.9684253,22.2084431 C49.6365163,22.8007036 48.0921835,22.6818237 46.868554,21.8928425 C46.81819,21.8595449 46.7525552,21.8595449 46.7021911,21.8928425 L42.1219657,24.9508268 C42.0613105,24.9911632 42.0388355,25.0689557 42.0687596,25.134989 C42.588831,26.3468953 42.3070632,27.7719249 41.2751636,28.6296159 C40.0012135,29.6907766 38.0588142,29.4813663 36.941485,28.1617845 C36.2002727,27.3011546 35.983825,26.1118374 36.3749519,25.0488486 C36.3996028,24.9841985 36.3759937,24.9112428 36.3179988,24.8728548 L34.8462118,23.926053 C34.7858754,23.8865373 34.7054013,23.89698 34.6573674,23.9505585 C34.6413806,23.9683806 34.6248941,23.9862028 34.6079081,24.0040249 C33.4223851,25.2664274 31.415539,25.3184086 30.1251025,24.1265522 C28.8346659,22.9346958 28.7499857,20.9460407 29.9355087,19.6858661 C31.1210317,18.4256914 33.1278779,18.3714824 34.4183144,19.5640814 C35.3067672,20.3794212 35.6547911,21.6218128 35.3175733,22.7742965 C35.2992283,22.8363207 35.3234696,22.9029805 35.3775239,22.9391514 L36.951227,23.9513011 C37.0094673,23.9887925 37.0860709,23.981724 37.1363245,23.9342215 C37.1670491,23.9060031 37.1992726,23.8785273 37.231496,23.8517941 C38.4065277,22.8745461 40.1443455,22.9747957 41.2849056,24.0263026 C41.3357069,24.0747277 41.4136959,24.0815285 41.4722512,24.0426396 L45.7969372,21.1524806 C45.8308901,21.1298331 45.8540195,21.0944113 45.8609545,21.0544404 C45.8678896,21.0144694 45.858027,20.9734267 45.8336569,20.9408426 C45.6366116,20.6855347 45.4701341,20.4084276 45.3375657,20.1150829 C44.3903464,18.0061283 45.3735361,15.5243936 47.5332563,14.5716511 C47.7426515,14.4788036 47.9591535,14.4025725 48.1807227,14.3436761 C48.2467209,14.3267902 48.2929087,14.2679006 48.29313,14.2003562 L48.29313,9.61857804 C48.2929382,9.55215512 48.2482616,9.49393482 48.1837202,9.47600083 C47.5062372,9.27598761 46.8753841,8.94512303 46.3274999,8.50246578 C46.2749498,8.460181 46.2003194,8.45805064 46.1454,8.49726766 L42.0702584,11.4312394 C42.0112677,11.4736882 41.991658,11.5520428 42.0237966,11.6168868 C42.6287593,12.8731103 42.4130467,14.3664829 41.4767475,15.4040941 C40.1893085,16.8216977 37.968139,16.9204622 36.5165852,15.626871 C35.0650314,14.3332798 34.9316414,12.1366996 36.2168322,10.715383 C37.5020231,9.29406636 39.7254407,9.19901489 41.1769945,10.4926061 L41.2107167,10.5230523 C41.2631725,10.5710351 41.3425006,10.5756957 41.4003105,10.5341911 L45.3128361,7.71680592 C45.3452031,7.69349477 45.3668197,7.65832645 45.3728722,7.61913267 C45.3789247,7.5799389 45.3689105,7.53997413 45.3450596,7.50813823 C44.5657018,6.49524593 44.2299785,5.33012276 44.4098303,4.35287476 C44.4234377,4.27259504 44.3692942,4.19642141 44.2884303,4.18207914 L38.640335,3.19294971 C38.587505,3.18382315 38.5337799,3.20336267 38.4994511,3.2441884 C37.8250069,4.0053428 36.3015124,4.4865409 34.5554514,4.39594496 C32.2413584,4.27713062 30.4166122,3.19814784 30.4810591,1.98624151 Z M20.5892111,3.27166422 C23.7051432,1.51692485 24.7228046,2.18080001 25.1701859,3.08898716 C25.6175672,3.99717431 24.2934084,5.55067188 22.211624,6.55910864 C20.6109432,7.33437225 19.0289969,7.56234727 18.1791972,7.21407272 C18.1267004,7.19419399 18.0673927,7.20508796 18.0255738,7.24229113 L14.3985629,10.4844376 C14.3544723,10.5241338 14.3382919,10.5859368 14.3573468,10.6418666 C14.6376158,11.5106965 14.5004789,12.6780474 13.9691667,13.8572798 C13.9389735,13.9232284 13.9369904,13.9984765 13.9636688,14.0658969 C13.9903473,14.1333172 14.0434174,14.1871737 14.1108,14.215208 L17.7827739,15.7315761 L17.8532158,15.7605371 C17.9271252,15.7906096 18.0118464,15.757943 18.0458071,15.6862782 C18.9024932,13.9981783 20.7193966,13.0067589 22.6170399,13.1919195 C22.6934167,13.2005328 22.763987,13.1504907 22.7804053,13.0760755 L23.0891509,11.6265405 C23.097643,11.5862981 23.0889212,11.5443678 23.0650622,11.5107332 C23.0412032,11.4770986 23.0043418,11.4547692 22.9632546,11.4490616 C22.0714895,11.3309898 21.4000429,10.9151396 21.2554121,10.2987902 C21.0305973,9.34307728 22.154671,8.26855004 23.7710889,7.89725521 C25.0772624,7.60021935 26.3025027,7.85121465 26.8390605,8.46682148 C26.876942,8.50785139 26.9347808,8.5244726 26.988937,8.50989168 L31.2057119,7.30763902 C31.2460888,7.2959283 31.2796395,7.26794037 31.2981686,7.23051204 C31.3166976,7.19308371 31.3184986,7.14966161 31.3031316,7.11085276 C31.2329267,6.94360325 31.2071272,6.76132081 31.2281934,6.58138633 C31.339102,5.68062507 32.6610126,5.09620701 34.1807602,5.28333961 C35.7005077,5.4704722 36.8433159,6.34524282 36.7331567,7.24600408 C36.6229975,8.14676534 35.3003375,8.7311834 33.7798406,8.54405081 C33.0784186,8.45939558 32.4564312,8.22622243 32.0023054,7.91136441 C31.9651171,7.88525129 31.9179582,7.87732608 31.8741611,7.88982931 L27.2197468,9.21683704 C27.1627633,9.23340713 27.1210274,9.28175472 27.1133345,9.34010692 C27.014416,10.1859165 25.9810176,11.0376669 24.5796725,11.361436 C24.4612701,11.3889118 24.343617,11.4119321 24.2267134,11.4297542 C24.1652273,11.4391927 24.1160202,11.485294 24.1030653,11.5455982 L23.6991482,13.4369741 C25.9864091,14.2395829 27.2539047,16.6621099 26.5977377,18.9769632 C25.9415708,21.2918164 23.5865154,22.7060286 21.2120471,22.2110736 C18.8375788,21.7161186 17.2570864,19.4815463 17.5976764,17.1009115 C17.6146565,16.9840696 17.549577,16.870678 17.4395567,16.8254107 L13.4565891,15.1486432 C13.3515908,15.1046225 13.2298265,15.1381736 13.1628312,15.2295855 L13.1628312,15.2295855 C11.5838825,17.3875511 9.23456855,18.368512 7.91715424,17.4209676 C6.59973993,16.4734232 6.8058201,13.9604998 8.38476888,11.8017916 C9.96371765,9.6430835 12.3130316,8.66212256 13.6304459,9.61040956 C13.7246969,9.67775704 13.8120446,9.75411529 13.891231,9.83838458 C13.9469481,9.8970587 14.0397132,9.90101243 14.1003086,9.84729566 L17.4200728,6.87693702 C17.5298981,6.77743953 17.5698981,6.62297039 17.5219888,6.4833645 C17.2619531,5.67319918 17.7670369,4.86080609 20.5884617,3.27166422 L20.5892111,3.27166422 Z" id="path-2"></path>
    </defs>
    <g id="Metadventu.re-LP" stroke="none" stroke-width="1" fill="none" fill-rule="evenodd">
        <g id="Metadventure" transform="translate(-363.000000, -63.000000)">
            <g id="Shape" transform="translate(363.000000, 63.000000)">
                <use fill="#0EA4D4" xlink:href="#path-2"></use>
                <use fill="url(#radialGradient-1)" style="mix-blend-mode: overlay;" xlink:href="#path-2"></use>
            </g>
        </g>
    </g>
</svg>