<?xml version="1.0" encoding="UTF-8"?>
<svg width="367px" height="47px" viewBox="0 0 367 47" version="1.1" xmlns="http://www.w3.org/2000/svg" xmlns:xlink="http://www.w3.org/1999/xlink">
    <title>Group 11@3x</title>
    <g id="Metadventu.re-LP" stroke="none" stroke-width="1" fill="none" fill-rule="evenodd">
        <g id="Metadventure" transform="translate(-298.000000, -285.000000)" fill="#FFFFFF">
            <g id="Group-11" transform="translate(298.000000, 285.000000)">
                <g id="Group-3" transform="translate(193.000000, 17.000000)">
                    <path d="M20.8147503,8.32768234 L6.82809221,13.7384274 L6.74849732,13.6777929 C6.83054128,13.1629933 6.96768939,12.645816 7.16361526,12.1250719 C8.10038583,9.62716474 10.2188343,7.65713515 12.8258729,6.84391835 C14.8684001,6.20666074 16.901131,6.31009621 18.9252902,7.15422476 C19.6342969,7.45145313 20.2698315,7.80931607 20.8294447,8.23019144 L20.8147503,8.32768234 Z M9.74983675,1.11454444 C5.79213417,2.64586496 2.97325071,5.30427544 1.29685998,9.08977586 C-0.380755288,12.8752763 -0.430961293,16.6893106 1.1474665,20.5330678 C2.72466976,24.376825 5.46150926,27.1137038 9.36165862,28.7413263 C13.2605834,30.3701377 17.1888971,30.4176942 21.1478243,28.8863737 C25.1067514,27.3550532 27.9244103,24.6966427 29.6020256,20.9111423 L29.6203936,20.8671525 C29.6203936,20.8671525 30.7947243,17.5881292 27.7946094,16.628676 C24.9059274,15.7072681 23.5613861,18.3074218 23.5491407,18.3312001 L23.5479162,18.3335779 L23.5393444,18.3526005 C22.7482937,20.1407264 21.3841598,21.6661023 19.5951117,22.5447094 C17.0395037,23.800202 14.49859,23.9000707 11.9735954,22.8466934 C10.4796606,22.2213249 9.28573735,21.3094283 8.38937649,20.105059 L8.41509176,20.0194572 L28.5232088,12.2415854 C29.6252918,11.8147655 30.2093958,10.6032627 29.7771343,9.53086275 L29.7514191,9.46666142 C28.1742158,5.62290424 25.4361518,2.88840331 21.5360024,1.25959188 C17.6370776,-0.369219548 13.7087639,-0.419153912 9.74983675,1.11454444 L9.74983675,1.11454444 Z" id="Fill-203"></path>
                </g>
                <g id="Group-3" transform="translate(55.000000, 17.000000)">
                    <path d="M20.8147503,8.32768234 L6.82809221,13.7384274 L6.74849732,13.6777929 C6.83054128,13.1629933 6.96768939,12.645816 7.16361526,12.1250719 C8.10038583,9.62716474 10.2188343,7.65713515 12.8258729,6.84391835 C14.8684001,6.20666074 16.901131,6.31009621 18.9252902,7.15422476 C19.6342969,7.45145313 20.2698315,7.80931607 20.8294447,8.23019144 L20.8147503,8.32768234 Z M9.74983675,1.11454444 C5.79213417,2.64586496 2.97325071,5.30427544 1.29685998,9.08977586 C-0.380755288,12.8752763 -0.430961293,16.6893106 1.1474665,20.5330678 C2.72466976,24.376825 5.46150926,27.1137038 9.36165862,28.7413263 C13.2605834,30.3701377 17.1888971,30.4176942 21.1478243,28.8863737 C25.1067514,27.3550532 27.9244103,24.6966427 29.6020256,20.9111423 L29.6203936,20.8671525 C29.6203936,20.8671525 30.7947243,17.5881292 27.7946094,16.628676 C24.9059274,15.7072681 23.5613861,18.3074218 23.5491407,18.3312001 L23.5479162,18.3335779 L23.5393444,18.3526005 C22.7482937,20.1407264 21.3841598,21.6661023 19.5951117,22.5447094 C17.0395037,23.800202 14.49859,23.9000707 11.9735954,22.8466934 C10.4796606,22.2213249 9.28573735,21.3094283 8.38937649,20.105059 L8.41509176,20.0194572 L28.5232088,12.2415854 C29.6252918,11.8147655 30.2093958,10.6032627 29.7771343,9.53086275 L29.7514191,9.46666142 C28.1742158,5.62290424 25.4361518,2.88840331 21.5360024,1.25959188 C17.6370776,-0.369219548 13.7087639,-0.419153912 9.74983675,1.11454444 L9.74983675,1.11454444 Z" id="Fill-203"></path>
                </g>
                <g id="Group-3" transform="translate(337.000000, 17.000000)">
                    <path d="M20.8147503,8.32768234 L6.82809221,13.7384274 L6.74849732,13.6777929 C6.83054128,13.1629933 6.96768939,12.645816 7.16361526,12.1250719 C8.10038583,9.62716474 10.2188343,7.65713515 12.8258729,6.84391835 C14.8684001,6.20666074 16.901131,6.31009621 18.9252902,7.15422476 C19.6342969,7.45145313 20.2698315,7.80931607 20.8294447,8.23019144 L20.8147503,8.32768234 Z M9.74983675,1.11454444 C5.79213417,2.64586496 2.97325071,5.30427544 1.29685998,9.08977586 C-0.380755288,12.8752763 -0.430961293,16.6893106 1.1474665,20.5330678 C2.72466976,24.376825 5.46150926,27.1137038 9.36165862,28.7413263 C13.2605834,30.3701377 17.1888971,30.4176942 21.1478243,28.8863737 C25.1067514,27.3550532 27.9244103,24.6966427 29.6020256,20.9111423 L29.6203936,20.8671525 C29.6203936,20.8671525 30.7947243,17.5881292 27.7946094,16.628676 C24.9059274,15.7072681 23.5613861,18.3074218 23.5491407,18.3312001 L23.5479162,18.3335779 L23.5393444,18.3526005 C22.7482937,20.1407264 21.3841598,21.6661023 19.5951117,22.5447094 C17.0395037,23.800202 14.49859,23.9000707 11.9735954,22.8466934 C10.4796606,22.2213249 9.28573735,21.3094283 8.38937649,20.105059 L8.41509176,20.0194572 L28.5232088,12.2415854 C29.6252918,11.8147655 30.2093958,10.6032627 29.7771343,9.53086275 L29.7514191,9.46666142 C28.1742158,5.62290424 25.4361518,2.88840331 21.5360024,1.25959188 C17.6370776,-0.369219548 13.7087639,-0.419153912 9.74983675,1.11454444 L9.74983675,1.11454444 Z" id="Fill-203"></path>
                </g>
                <g id="Group-5" transform="translate(135.000000, 0.057780)">
                    <path d="M23.5290843,32.959431 C23.3740209,34.6633549 22.7418393,36.1727131 21.6313467,37.4851473 C19.8099479,39.6395203 16.974673,40.8021978 14.1441692,40.5510312 C12.4229653,40.3989162 10.8985726,39.7739475 9.57099121,38.6796628 C7.38817542,36.8778664 6.21088625,34.0725827 6.46495169,31.2720157 C6.61882231,29.5704501 7.25100394,28.0634502 8.36030377,26.7486577 C10.1828953,24.5931055 13.019363,23.430428 15.8498668,23.6815947 C17.5722635,23.8348889 19.0966562,24.4586783 20.4254304,25.5565006 C22.6070534,27.3559386 23.7831498,30.1612223 23.5290843,32.959431 Z M26.7806449,0 C25.0057652,0 23.566061,1.42327764 23.566061,3.17672738 L23.566061,18.9436249 C23.566061,19.3469065 23.1211483,19.596894 22.7740448,19.3846405 C20.486263,17.9896633 17.8931255,17.2904059 14.997018,17.2904059 C10.8460896,17.2904059 7.30825812,18.7360881 4.38590911,21.6262733 C1.46117451,24.5164584 0,28.0127452 0,32.1163129 C0,36.2198806 1.46117451,39.7161674 4.38590911,42.6075317 C7.30825812,45.4977169 10.8460896,46.9422199 14.997018,46.9422199 C19.1479464,46.9422199 22.6845851,45.4977169 25.6081269,42.6075317 C28.5328615,39.7161674 29.994036,36.2198806 29.994036,32.1163129 L29.994036,3.17672738 C29.994036,1.42327764 28.5555246,0 26.7806449,0 L26.7806449,0 Z" id="Fill-221"></path>
                </g>
                <g id="Group-2" transform="translate(103.000000, 17.290643)">
                    <path d="M20.622021,21.2429112 C19.2254528,22.4846408 17.4213537,23.2266068 15.5481411,23.3270321 C12.7502383,23.4794423 10.4158723,22.5200851 8.54265968,20.4513233 C7.28908484,19.0666352 6.53956149,17.2767013 6.43708294,15.4170605 C6.28336511,12.6405955 7.25095329,10.323724 9.34103908,8.46644612 C10.7376072,7.22471645 12.5417064,6.48393195 14.414919,6.38232514 C17.2140133,6.22991493 19.5507626,7.18927221 21.4239752,9.26039698 C22.6763584,10.6450851 23.4258818,12.4350189 23.5283603,14.2934783 C23.6808866,17.0687618 22.7132984,19.3868147 20.622021,21.2429112 Z M24.3017159,0.985349716 C23.8965682,1.39295841 23.5438513,2.16800567 23.5438513,2.6205104 C21.0688751,0.873109641 18.2149666,0 14.9821258,0 C10.8353194,0 7.30100095,1.44848771 4.38155386,4.34428166 C1.46091516,7.24007561 0,10.7431474 0,14.8546786 C0,18.9662098 1.46091516,22.4692817 4.38155386,25.3662571 C7.30100095,28.262051 10.8353194,29.7093573 14.9821258,29.7093573 C19.1289323,29.7093573 22.6632507,28.262051 25.5826978,25.3662571 C28.5045281,22.4692817 29.9642517,18.9662098 29.9642517,14.8546786 L29.9642517,2.6205104 C29.9642517,2.18572779 29.6806482,1.39059546 29.2838418,1.03024575 C27.8956149,-0.229206049 25.3265014,-0.0472589792 24.3017159,0.985349716 L24.3017159,0.985349716 Z" id="Fill-224"></path>
                </g>
                <g id="Group" transform="translate(0.000000, 17.000000)">
                    <path d="M37.440139,0 C33.4102084,0 29.9755033,1.46039309 27.1371815,4.37998809 C26.7249243,4.80285884 26.3462498,5.23645027 25.998842,5.68314473 C25.6525922,5.23645027 25.2739177,4.80285884 24.8616604,4.37998809 C22.0233387,1.46039309 18.5897916,0 14.559861,0 C10.5299305,0 7.09522537,1.46039309 4.25806164,4.37998809 C1.41858186,7.29958309 0,10.8314473 0,14.9767719 L0,26.7230494 C0,28.5086361 1.40584358,29.9535438 3.14056654,29.9535438 C4.85212899,29.9535438 6.23944415,28.5253127 6.23944415,26.7647409 L6.23944415,15.1185229 C6.23944415,12.9720071 6.95047212,10.8564622 8.35747372,9.26980345 C9.96133975,7.46277546 11.9079815,6.51459202 14.200873,6.42525313 C16.7114734,6.32757594 19.1664885,7.41751042 20.8328879,9.35318642 C22.1982006,10.938654 22.8791199,12.8123883 22.8791199,14.9767719 L22.8791199,26.7218582 C22.8791199,28.5074449 24.2861215,29.9535438 26.0220025,29.9535438 C27.7324069,29.9535438 29.1197221,28.5265039 29.1197221,26.7683145 L29.1197221,14.9767719 C29.1197221,12.8123883 29.8017994,10.9374628 31.1671121,9.35318642 C32.8335115,7.41751042 35.2885266,6.32757594 37.799127,6.42525313 C40.0931766,6.51459202 42.0409763,7.46396665 43.6436843,9.27337701 C45.0495279,10.8600357 45.7593978,12.9743895 45.7593978,15.1209053 L45.7593978,26.6170339 C45.7593978,28.4597975 47.2115624,29.9535438 49.0041867,29.9535438 C50.6590059,29.9535438 52,28.5729601 52,26.8719476 L52,14.9767719 C52,10.8314473 50.5802601,7.29958309 47.7419384,4.37998809 C44.9036166,1.46039309 41.4700695,0 37.440139,0" id="Fill-227"></path>
                </g>
                <g id="Group-4" transform="translate(87.000000, 0.000000)">
                    <path d="M6.59778858,23.8327938 L11.4629078,23.8327938 C13.3002666,23.8327938 14.7894448,22.3269017 14.7894448,20.471576 C14.7894448,18.790967 13.441421,17.4277008 11.7769762,17.4277008 L6.59778858,17.4277008 C6.45428168,17.4277008 6.33900565,17.3100344 6.33900565,17.1650314 L6.33900565,3.48958123 C6.33900565,1.561754 4.79218946,0 2.88542974,0 C1.29156211,0 0,1.30502731 0,2.91551183 L0,32.3701446 C0,36.5074853 1.44095044,40.032723 4.32520389,42.9446692 C6.29430678,44.9366781 8.54807089,46.2464596 11.0829674,46.8763909 C12.9662014,47.3446793 14.7894448,45.9089116 14.7894448,43.9501821 C14.7894448,42.3955594 13.7954831,41.003768 12.3204203,40.5616276 C11.1064931,40.1979314 10.0078419,39.550172 9.02681932,38.6171606 C7.25297992,36.9306089 6.33900565,34.5178535 6.33900565,32.0575561 L6.33900565,24.0930862 C6.33900565,23.9492717 6.45428168,23.8327938 6.59778858,23.8327938" id="Fill-243"></path>
                </g>
                <g id="Group-4" transform="translate(258.000000, 0.000000)">
                    <path d="M6.59778858,23.8327938 L11.4629078,23.8327938 C13.3002666,23.8327938 14.7894448,22.3269017 14.7894448,20.471576 C14.7894448,18.790967 13.441421,17.4277008 11.7769762,17.4277008 L6.59778858,17.4277008 C6.45428168,17.4277008 6.33900565,17.3100344 6.33900565,17.1650314 L6.33900565,3.48958123 C6.33900565,1.561754 4.79218946,0 2.88542974,0 C1.29156211,0 0,1.30502731 0,2.91551183 L0,32.3701446 C0,36.5074853 1.44095044,40.032723 4.32520389,42.9446692 C6.29430678,44.9366781 8.54807089,46.2464596 11.0829674,46.8763909 C12.9662014,47.3446793 14.7894448,45.9089116 14.7894448,43.9501821 C14.7894448,42.3955594 13.7954831,41.003768 12.3204203,40.5616276 C11.1064931,40.1979314 10.0078419,39.550172 9.02681932,38.6171606 C7.25297992,36.9306089 6.33900565,34.5178535 6.33900565,32.0575561 L6.33900565,24.0930862 C6.33900565,23.9492717 6.45428168,23.8327938 6.59778858,23.8327938" id="Fill-243"></path>
                </g>
                <g id="Group-8" transform="translate(225.015501, 17.000000)">
                    <path d="M14.9922493,0 C10.8426408,0 7.30712667,1.4574995 4.38332207,4.37012086 C1.4619023,7.28511987 0,10.8099861 0,14.9459085 L0,26.7949277 C0,28.5068357 1.39154974,29.8941946 3.10862912,29.8941946 C4.94018045,29.8941946 6.42593108,28.4129186 6.42593108,26.5856945 L6.42593108,14.9459085 C6.42593108,12.3614028 7.43233038,10.1894195 9.44512898,8.43352487 C10.7627489,7.28274222 12.4333241,6.57182485 14.1790214,6.43748762 C17.2626098,6.19972261 19.7941095,7.291064 21.7747128,9.71032296 C22.9695139,11.1702001 23.5597599,13.0307113 23.5597599,14.9138102 L23.5597599,26.2456905 C23.5597599,28.260749 25.1969474,29.8941946 27.2180929,29.8941946 C28.7467705,29.8941946 29.9844986,28.6590053 29.9844986,27.1349316 L29.9844986,14.9459085 C29.9844986,10.8099861 28.5237887,7.28511987 25.6011765,4.37012086 C22.6785643,1.4574995 19.1418578,0 14.9922493,0" id="Fill-247"></path>
                </g>
                <g id="Group-10" transform="translate(307.000000, 17.000000)">
                    <path d="M25.6448705,4.41899308 L25.6114695,4.38558817 C22.6864894,1.46265808 19.1495538,0 14.9994698,0 C10.8470001,0 7.30887161,1.46265808 4.38627728,4.38558817 C1.46129716,7.31090432 0,10.8482462 0,14.998807 L0,26.9005011 C0,28.6113099 1.38733763,30 3.09794999,30 C4.93739507,30 6.42851462,28.5087091 6.42851462,26.6702458 L6.42851462,15.0513004 C6.42851462,12.9050346 7.19912521,10.8112622 8.65565079,9.23407301 C10.5941062,7.13552851 13.0192631,6.21450728 15.9311213,6.46981627 C17.8755412,6.64041995 19.6780065,7.55905512 21.0581868,8.93939394 L21.0915879,8.97399189 C21.0915879,8.97399189 23.6288769,11.3433548 25.8810639,9.18635171 C28.3754087,6.79790026 25.6448705,4.41899308 25.6448705,4.41899308" id="Fill-249"></path>
                </g>
                <g id="Group-6" transform="translate(165.000000, 17.028601)">
                    <path d="M23.4393358,0 L23.4393358,0 C22.0975459,0 20.871621,0.726940494 20.2761005,1.87693652 L13.9782847,16.7851752 C13.8387485,17.2225312 13.3752891,17.3154842 13.1460511,16.8245015 L6.79715503,1.8936204 C6.20537214,0.734090729 4.97446373,0 3.62644459,0 L3.53425105,0 C0.91047259,0 -0.796353854,2.6420116 0.377245058,4.88718519 L10.3304104,28.1051879 C11.6310869,30.5934695 15.3425,30.5934695 16.6444223,28.1051879 L26.5963418,4.88718519 C27.7699407,2.6420116 26.0631142,0 23.4393358,0" id="Fill-258"></path>
                </g>
                <g id="Group-9" transform="translate(276.000000, 17.187322)">
                    <path d="M26.9549364,0 L26.7932305,0 C24.9704728,0 23.492529,1.47368005 23.492529,3.29117926 L23.492529,14.6941195 C23.492529,17.0380177 22.6162261,19.3285647 20.942095,20.9753399 C19.5236019,22.371957 17.855416,23.1710402 15.9399152,23.3725893 C12.9281439,23.6903256 9.90686061,22.3838128 8.07577979,19.9770787 C6.96405216,18.5152545 6.40759383,16.8246127 6.40759383,14.9051533 L6.40759383,3.11689851 C6.40759383,1.39543155 5.00812493,0 3.28048829,0 C1.46843169,0 0,1.46419538 0,3.27102434 L0,14.9051533 C0,19.0321688 1.45773057,22.5486089 4.37081368,25.453288 C7.28627482,28.3591527 10.8128889,29.8126778 14.9494669,29.8126778 C19.087234,29.8126778 22.613848,28.3591527 25.5281202,25.453288 C28.4412033,22.5486089 29.8989339,19.0321688 29.8989339,14.9051533 L29.8989339,2.93550427 C29.8989339,1.3136263 28.5815069,0 26.9549364,0" id="Fill-267"></path>
                </g>
            </g>
        </g>
    </g>
</svg>